<?xml version="1.0" encoding="UTF-8"?>
<!DOCTYPE svg PUBLIC "-//W3C//DTD SVG 1.1//EN" "http://www.w3.org/Graphics/SVG/1.1/DTD/svg11.dtd">
<!-- Creator: CorelDRAW 2021 (64-Bit) -->
<svg xmlns="http://www.w3.org/2000/svg" xml:space="preserve" width="80mm" height="73.306mm" version="1.1" style="shape-rendering:geometricPrecision; text-rendering:geometricPrecision; image-rendering:optimizeQuality; fill-rule:evenodd; clip-rule:evenodd"
viewBox="0 0 8000 7330.6"
 xmlns:xlink="http://www.w3.org/1999/xlink"
 xmlns:xodm="http://www.corel.com/coreldraw/odm/2003">
 <defs>
  <style type="text/css">
   <![CDATA[
    .fil0 {fill:black}
    .fil4 {fill:#DEDEDE}
    .fil2 {fill:#FBC02D}
    .fil1 {fill:#FFEB3B}
    .fil3 {fill:#FFF9C4}
   ]]>
  </style>
 </defs>
 <g id="Capa_x0020_1">
  <metadata id="CorelCorpID_0Corel-Layer"/>
  <g id="_2328259643936">
   <path class="fil0" d="M321.8 5788.51l7346.94 0 0 1216.32 -7346.94 0 0 -1216.32zm1469.39 -4114.29l4204.08 0c26.96,0 31.75,33.85 45.98,76.48 12.13,36.35 20.06,54.69 32.6,89.84l201.35 549.67c101.12,257.51 198.42,563.44 299.65,818.71 11.28,28.43 23.04,59.11 33.69,88.76 22.11,61.52 44.25,121.05 67.33,185.74 22.65,63.48 43.56,115.28 65.26,179.63l202.11 548.92c21.34,59.36 44.9,118.23 65.28,179.61 13.6,40.96 61.4,153.98 64.3,188.77l-2146.94 0 0 326.53 2163.27 0 0 -285.72c18.7,26.92 48.98,118.53 48.98,146.94l0 685.71 -6261.23 0 0 -546.93 2081.63 0 0 -326.53 -2024.49 0c35.67,-153.11 164.06,-562.99 210.48,-728.3l617.92 -2141.27c6.49,-22.15 2.72,-36.56 28.75,-36.56zm3632.65 -326.53l-171.43 0 0 -783.67 -669.39 0 0 -236.73 1518.37 0 0 220.4 -677.55 0 0 800zm-1175.51 -457.14l677.55 0 0 457.14 -3404.08 0c-4.96,59.6 -851.47,2943.58 -922.48,3199.97 -43.86,158.39 -40.79,95.57 -40.79,277.58 0.01,218.31 -8.16,417.67 -8.16,628.57 -188.19,0 -419.41,-22.06 -514.53,163.02 -20.02,38.95 -40.57,71.68 -40.57,130.86l0 1289.8c0,151.83 149.84,293.88 302.04,293.88l7395.92 0c151.28,0 302.04,-141.94 302.04,-293.88l0 -1289.8c0,-92.58 -53.06,-157.05 -112.01,-214.52 -100.4,-97.89 -276.95,-79.36 -418.6,-79.36l0 -767.34 -454.01 -1252.12c-24.94,-71.96 -52.24,-137.42 -77.64,-208.07 -24.94,-69.39 -47.79,-137.18 -75.88,-209.83 -156.61,-405.12 -301.83,-842 -458.42,-1247.71 -27.79,-72.02 -51.2,-141.43 -75.96,-209.75l-74.42 -211.3 -497.96 0 0 -473.47 677.55 0 0 -873.46 -2179.59 0 0 889.79z"/>
   <path class="fil0" d="M2158.53 2368.1l1673.47 0 0 424.49 -1673.47 0 0 -424.49zm-326.53 -8.16l0 440.81c0,177.62 147.79,318.37 326.53,318.37l1673.47 0c178.78,0 326.53,-140.25 326.53,-318.37l0 -448.97c0,-94.28 -44.54,-162.69 -103.93,-222.6 -53.69,-54.15 -133.77,-87.61 -238.92,-87.61l-1640.82 0c-189.2,0 -342.86,131.62 -342.86,318.37z"/>
   <polygon class="fil1" points="3407.51,6390.28 4928.41,6392.37 4928.41,6074.48 3407.51,6076.53 "/>
   <polygon class="fil2" points="2215.68,3559.94 3521.8,3559.94 3521.8,3233.41 2215.68,3233.41 "/>
   <g>
    <polygon class="fil3" points="4730,2363.19 5807.55,2363.19 5807.55,2036.66 4730,2036.66 "/>
    <polygon class="fil3" points="5097.35,3301.96 5423.88,3301.96 5423.88,2975.43 5097.35,2975.43 "/>
    <polygon class="fil3" points="5097.35,3759.1 5423.88,3759.1 5423.88,3432.57 5097.35,3432.57 "/>
    <polygon class="fil2" points="5578.98,3759.1 5905.51,3759.1 5905.51,3432.57 5578.98,3432.57 "/>
    <path class="fil3" d="M5578.98 2833.81c56.03,14.23 245.87,5.82 316.13,5.82l0 -312.7c-74.46,0 -254.17,-8.77 -316.13,5.14l0 301.74z"/>
    <path class="fil3" d="M5905.51 3290.96l0 -301.75c-61.96,-13.9 -241.67,-5.14 -316.13,-5.14l0 312.71c70.27,0 260.1,8.41 316.13,-5.82z"/>
    <polygon class="fil3" points="5105.43,2838.73 5415.71,2838.73 5415.79,2528.44 5105.51,2528.44 "/>
    <polygon class="fil3" points="4632.04,3301.96 4917.76,3301.96 4917.76,2975.43 4632.04,2975.43 "/>
    <polygon class="fil3" points="4632.04,3759.1 4917.76,3759.1 4917.76,3432.57 4632.04,3432.57 "/>
    <polygon class="fil3" points="4638.58,2838.28 4909.08,2838.28 4908.57,2529.19 4638.58,2529.19 "/>
   </g>
   <path class="fil4" d="M3407.51 6390.28c12.95,10.54 -15.85,8.09 32.03,11.27 12.5,0.83 35.72,-0.74 49.6,-0.79l1444.9 -0.01 0 -334.69 -1436.73 0c-15.97,-0.03 -33.97,-0.99 -49.51,-0.68 -41.14,0.85 -31.28,3.82 -40.29,11.15l1520.9 -2.05 0 317.89 -1520.9 -2.09z"/>
  </g>
 </g>
</svg>
