<?xml version="1.0" encoding="UTF-8"?>
<!DOCTYPE svg PUBLIC "-//W3C//DTD SVG 1.1//EN" "http://www.w3.org/Graphics/SVG/1.1/DTD/svg11.dtd">
<!-- Creator: CorelDRAW 2021 (64-Bit) -->
<svg xmlns="http://www.w3.org/2000/svg" xml:space="preserve" width="80mm" height="80mm" version="1.1" style="shape-rendering:geometricPrecision; text-rendering:geometricPrecision; image-rendering:optimizeQuality; fill-rule:evenodd; clip-rule:evenodd"
viewBox="0 0 8000 8000"
 xmlns:xlink="http://www.w3.org/1999/xlink"
 xmlns:xodm="http://www.corel.com/coreldraw/odm/2003">
 <defs>
  <style type="text/css">
   <![CDATA[
    .fil3 {fill:#FBC02D}
    .fil0 {fill:#FFEB3B}
    .fil2 {fill:black;fill-rule:nonzero}
    .fil1 {fill:#212121;fill-rule:nonzero}
   ]]>
  </style>
 </defs>
 <g id="Capa_x0020_1">
  <metadata id="CorelCorpID_0Corel-Layer"/>
  <g id="_2329746314320">
   <rect class="fil0" x="324.5" y="1173.34" width="7337.43" height="1664.72"/>
   <path class="fil1" d="M7995.27 3171.4l0 -2333.34 -1333.33 0 0 -833.33 -333.34 0 0 833.33 -4666.66 0 0 -833.33 -333.34 0 0 833.33 -1333.33 0 0 2333.34 0 4833.33 8000 0 0 -4833.33zm-7666.67 -2000l1000 0 0 833.33 333.34 0 0 -833.33 4666.66 0 0 833.33 333.34 0 0 -833.33 1000 0 0 1666.66 -7333.34 0 0 -1666.66zm0 6500l0 -4500 7333.34 0 0 4500 -7333.34 0z"/>
   <path class="fil2" d="M828.6 7171.4l6333.34 0 0 -3333.34 -6333.34 0 0 3333.34zm333.34 -1000l666.66 0 0 666.66 -666.66 0 0 -666.66zm4666.66 -333.34l-666.66 0 0 -666.66 666.66 0 0 666.66zm333.34 -666.66l666.66 0 0 666.66 -666.66 0 0 -666.66zm-3000 1000l666.66 0 0 666.66 -666.66 0 0 -666.66zm-333.34 666.66l-666.66 0 0 -666.66 666.66 0 0 666.66zm1000 -1000l-666.66 0 0 -666.66 666.66 0 0 666.66zm333.34 -666.66l666.66 0 0 666.66 -666.66 0 0 -666.66zm0 1000l666.66 0 0 666.66 -666.66 0 0 -666.66zm1000 0l666.66 0 0 666.66 -666.66 0 0 -666.66zm0 -1333.34l0 -666.66 666.66 0 0 666.66 -666.66 0zm-333.34 0l-666.66 0 0 -666.66 666.66 0 0 666.66zm-1000 0l-666.66 0 0 -666.66 666.66 0 0 666.66zm-1000 0l-666.66 0 0 -666.66 666.66 0 0 666.66zm0 333.34l0 666.66 -666.66 0 0 -666.66 666.66 0zm-1000 666.66l-666.66 0 0 -666.66 666.66 0 0 666.66zm4333.34 1000l0 -666.66 666.66 0 0 666.66 -666.66 0zm666.66 -2000l-666.66 0 0 -666.66 666.66 0 0 666.66zm-5000 -666.66l0 666.66 -666.66 0 0 -666.66 666.66 0z"/>
   <rect class="fil3" x="2162.46" y="4168.77" width="666.67" height="666.67"/>
   <rect class="fil3" x="5159.6" y="6166.23" width="666.67" height="666.67"/>
  </g>
 </g>
</svg>
