<?xml version="1.0" encoding="UTF-8"?>
<!DOCTYPE svg PUBLIC "-//W3C//DTD SVG 1.1//EN" "http://www.w3.org/Graphics/SVG/1.1/DTD/svg11.dtd">
<!-- Creator: CorelDRAW 2021 (64-Bit) -->
<svg xmlns="http://www.w3.org/2000/svg" xml:space="preserve" width="80mm" height="80mm" version="1.1" style="shape-rendering:geometricPrecision; text-rendering:geometricPrecision; image-rendering:optimizeQuality; fill-rule:evenodd; clip-rule:evenodd"
viewBox="0 0 8000 8000"
 xmlns:xlink="http://www.w3.org/1999/xlink"
 xmlns:xodm="http://www.corel.com/coreldraw/odm/2003">
 <defs>
  <style type="text/css">
   <![CDATA[
    .fil1 {fill:#212121;fill-rule:nonzero}
    .fil3 {fill:#212121;fill-rule:nonzero}
    .fil0 {fill:#FFEB3B;fill-rule:nonzero}
    .fil2 {fill:#FFF9C4;fill-rule:nonzero}
   ]]>
  </style>
 </defs>
 <g id="Capa_x0020_1">
  <metadata id="CorelCorpID_0Corel-Layer"/>
  <g id="_2328402971696">
   <polygon class="fil0" points="7768.56,6727.51 3995.47,7756.62 3995.47,1281.95 7768.56,252.83 "/>
   <path class="fil1" d="M3995.47 7983.36c-49.17,0 -97.63,-16.06 -137.59,-46.55 -56.14,-42.93 -89.04,-109.53 -89.04,-180.19l-0.04 -6474.67c0,-102.24 68.48,-191.82 167.1,-218.73l3773.02 -1029.01c68.13,-18.69 141.01,-4.43 197.31,38.53 56.13,42.87 89.04,109.44 89.04,180.2l0 6474.57c0,102.23 -68.48,191.82 -167.1,218.72l-3773.05 1029.12c-19.68,5.32 -39.7,8.01 -59.65,8.01zm226.75 -6528.28l0 6004.69 3319.7 -905.43 0 -6004.65 -3319.7 905.39z"/>
   <polygon class="fil2" points="3995.47,7756.45 222.01,6727.51 222.01,252.9 3995.47,1281.95 "/>
   <path class="fil3" d="M3995.47 7983.19c-19.94,0 -39.96,-2.63 -59.64,-8.01l-3773.46 -1029.05c-98.62,-26.87 -167.1,-116.49 -167.1,-218.73l0 -6474.5c0,-70.66 32.94,-137.22 89.04,-180.19 56.2,-42.93 129.11,-57.29 197.31,-38.53l3773.46 1028.94c98.63,26.87 167.1,116.49 167.1,218.72l0 6474.51c0,70.65 -32.94,137.22 -89.04,180.19 -40.03,30.59 -88.49,46.65 -137.67,46.65zm-3546.72 -1428.85l3320.09 905.26 -0.04 -6004.52 -3320.05 -905.33 0 6004.59z"/>
   <path class="fil3" d="M3180.99 3939.47c-19.3,0 -38.97,-2.42 -58.38,-7.77l-2015.39 -535.87c-121,-32.13 -193.09,-156.36 -160.79,-277.35 32.12,-120.99 156.8,-192.98 277.28,-160.89l2015.39 535.87c121,32.12 193.09,156.36 160.79,277.35 -26.97,101.65 -118.67,168.66 -218.9,168.66z"/>
   <path class="fil3" d="M3180.99 5435.54c-19.3,0 -38.87,-2.42 -58.38,-7.67l-2015.39 -535.77c-121,-32.02 -192.98,-156.29 -160.79,-277.28 32.19,-120.99 156.18,-193.08 277.28,-160.79l2015.39 535.67c121,32.12 192.98,156.28 160.79,277.27 -26.97,101.52 -118.67,168.57 -218.9,168.57z"/>
   <path class="fil3" d="M4809.75 2700.6c-100.16,0 -191.92,-67.04 -218.9,-168.46 -32.22,-120.99 39.7,-245.15 160.79,-277.35l2015.5 -536.21c120.72,-32.12 245.15,39.8 277.28,160.79 32.22,120.99 -39.7,245.16 -160.79,277.35l-2015.5 536.21c-19.47,5.22 -39.15,7.67 -58.38,7.67z"/>
   <path class="fil3" d="M4809.75 4025.1c-100.26,0 -191.92,-67.14 -218.9,-168.53 -32.12,-120.99 39.8,-245.15 160.79,-277.34l2015.5 -535.67c121.16,-32.02 245.15,39.86 277.28,160.89 32.12,120.99 -39.8,245.16 -160.79,277.35l-2015.5 535.63c-19.57,5.25 -39.15,7.67 -58.38,7.67z"/>
   <path class="fil3" d="M4809.75 5350.08c-100.26,0 -191.92,-67.04 -218.9,-168.46 -32.22,-120.99 39.7,-245.22 160.79,-277.35l2015.5 -536.14c120.62,-32.23 245.15,39.8 277.28,160.79 32.22,120.99 -39.7,245.22 -160.79,277.34l-2015.5 536.18c-19.47,5.22 -39.15,7.64 -58.38,7.64z"/>
   <path class="fil3" d="M6452.25 6238.01c-100.16,0 -191.93,-66.94 -218.9,-168.46 -32.23,-120.99 39.69,-245.15 160.69,-277.34l373 -99.24c121.43,-31.75 245.22,39.8 277.34,160.69 32.23,121.09 -39.69,245.22 -160.68,277.34l-373 99.34c-19.54,5.15 -39.15,7.67 -58.45,7.67z"/>
   <path class="fil3" d="M4809.75 6675.09c-100.16,0 -191.92,-66.94 -218.9,-168.46 -32.22,-120.99 39.7,-245.15 160.69,-277.35l745.9 -198.57c121.16,-32.23 245.22,39.63 277.35,160.69 32.22,120.89 -39.7,245.15 -160.69,277.34l-745.9 198.58c-19.54,5.15 -39.22,7.77 -58.45,7.77z"/>
  </g>
 </g>
</svg>
