<?xml version="1.0" encoding="UTF-8"?>
<!DOCTYPE svg PUBLIC "-//W3C//DTD SVG 1.1//EN" "http://www.w3.org/Graphics/SVG/1.1/DTD/svg11.dtd">
<!-- Creator: CorelDRAW 2021 (64-Bit) -->
<svg xmlns="http://www.w3.org/2000/svg" xml:space="preserve" width="80mm" height="65.8794mm" version="1.1" style="shape-rendering:geometricPrecision; text-rendering:geometricPrecision; image-rendering:optimizeQuality; fill-rule:evenodd; clip-rule:evenodd"
viewBox="0 0 8000 6587.94"
 xmlns:xlink="http://www.w3.org/1999/xlink"
 xmlns:xodm="http://www.corel.com/coreldraw/odm/2003">
 <defs>
  <style type="text/css">
   <![CDATA[
    .fil2 {fill:#A9ABAE;fill-rule:nonzero}
    .fil0 {fill:#212121;fill-rule:nonzero}
    .fil1 {fill:#FFEB3B;fill-rule:nonzero}
   ]]>
  </style>
 </defs>
 <g id="Capa_x0020_1">
  <metadata id="CorelCorpID_0Corel-Layer"/>
  <g id="_2328085690432">
   <path class="fil0" d="M7467.12 1797.74c0,893.37 0,1800.28 0,2693.65 0,40.61 0,67.68 0,108.29 -568.51,0 -1137.02,0 -1719.07,0 -13.53,-40.61 -13.53,-94.75 -27.07,-135.36 270.72,0 527.9,0 798.62,0 27.07,0 54.14,0 94.75,0l0 0c0,0 0,0 0,0 13.54,0 40.61,0 54.15,0 27.07,0 54.14,0 81.21,-13.54 338.4,-67.68 582.05,-351.93 595.59,-703.87 0,0 0,0 0,-13.53 0,-487.3 0,-974.59 0,-1461.89 0,-203.04 -81.22,-419.61 -243.65,-554.97 -230.11,-203.04 -554.98,-243.65 -825.69,-94.75 -230.11,121.82 -365.48,379.01 -379.01,636.19 0,94.75 0,189.5 0,284.25 0,203.04 0,392.54 0,595.58 -135.36,0 -270.72,0 -392.54,0 -13.54,-94.75 -27.08,-175.96 -54.15,-270.71 -27.07,-121.83 -148.89,-203.04 -257.18,-203.04 -771.55,0 -1529.56,0 -2301.12,0 -108.28,0 -243.64,81.21 -257.18,203.04 -13.53,94.75 -40.61,175.96 -54.14,270.71 -148.9,0 -297.8,0 -446.69,0 0,-203.04 0,-406.08 0,-609.11 0,-108.29 0,-230.11 0,-338.4 -40.61,-351.94 -311.33,-622.66 -649.73,-649.72 -324.86,-27.08 -622.65,162.42 -744.47,460.22 -54.15,135.36 -54.15,257.18 -54.15,392.54 0,351.94 0,703.87 0,1069.34 0,108.29 0,230.11 0,338.4 40.61,365.47 351.94,663.26 717.41,663.26 297.79,0 595.58,0 893.37,0 -13.53,40.61 -13.53,94.76 -27.07,135.36 -582.05,0 -1150.56,0 -1732.6,0 0,-812.15 0,-1610.78 0,-2422.93 0,-121.83 0,-257.19 0,-379.01 0,-351.94 -541.44,-351.94 -541.44,0 0,893.37 0,1800.28 0,2693.66 0,121.82 0,257.18 0,379 0,419.62 0,852.77 0,1272.39 0,54.14 0,121.82 0,175.96 0,135.36 121.82,270.72 270.72,270.72 148.89,0 270.72,-121.82 270.72,-270.72 0,-392.54 0,-785.09 0,-1177.63 541.43,0 1082.87,0 1624.31,0 -40.61,230.11 -94.75,460.23 -135.36,690.34 -27.08,135.36 -54.15,284.25 -81.22,419.61 -40.61,175.97 81.22,338.4 257.19,338.4 297.79,0 595.58,0 893.37,0 162.43,0 324.86,0 487.3,0 175.96,0 311.32,-94.75 433.15,-216.57 54.14,40.6 108.28,94.75 162.43,135.36 148.89,121.82 365.47,81.21 541.43,81.21 351.94,0 717.41,0 1069.35,0 0,0 13.53,0 13.53,0 0,0 13.54,0 13.54,0 54.14,0 108.28,-27.07 135.36,-54.14 0,0 0,0 0,0 13.53,-13.53 13.53,-13.53 27.07,-27.07 54.15,-67.68 81.22,-162.43 67.68,-257.19 -67.68,-365.47 -135.36,-744.48 -203.04,-1109.95 541.44,0 1082.88,0 1610.78,0 0,338.4 0,663.26 0,1001.67 0,54.14 0,121.82 0,175.96 0,135.36 121.82,270.72 270.72,270.72 148.89,0 270.72,-121.82 270.72,-270.72 0,-419.61 0,-852.77 0,-1272.38 0,-54.14 0,-121.82 0,-175.97 0,-893.37 0,-1800.28 0,-2693.65 0,-121.83 0,-257.19 0,-379.01 13.54,-351.94 -527.9,-351.94 -527.9,0z"/>
   <path class="fil0" d="M6614.35 1337.51c365.47,0 663.26,-297.79 663.26,-663.26 0,-365.47 -297.79,-663.26 -663.26,-663.26 -365.47,0 -663.26,297.79 -663.26,663.26 0,365.47 297.8,663.26 663.26,663.26zm0 -967.82c169.2,0 304.56,135.36 304.56,304.56 0,169.19 -135.36,304.56 -304.56,304.56 -169.19,0 -304.55,-135.37 -304.55,-304.56 0,-169.2 135.36,-304.56 304.55,-304.56z"/>
   <path class="fil1" d="M4555.54 6333.64c-113.71,-97.46 -211.16,-178.68 -324.86,-276.14 -146.19,-113.7 -324.87,-129.94 -454.81,0 -97.46,97.47 -211.16,178.68 -308.63,276.14 -406.07,0 -812.15,0 -1234.47,0 211.16,-1055.81 422.32,-2095.37 633.48,-3151.18 16.24,-97.46 32.49,-178.67 48.73,-276.13 747.19,0 1478.13,0 2225.31,0 194.92,1104.53 389.84,2209.07 601,3313.6 0,32.49 16.24,64.98 16.24,97.47 -406.08,16.24 -795.92,16.24 -1201.99,16.24z"/>
   <path class="fil0" d="M1394.07 1334.55c365.47,0 663.26,-297.79 663.26,-663.26 0,-365.47 -297.79,-663.26 -663.26,-663.26 -365.47,0 -663.26,297.79 -663.26,663.26 0,365.47 297.79,663.26 663.26,663.26zm0 -967.81c169.2,0 304.56,135.36 304.56,304.55 0,169.2 -135.36,304.56 -304.56,304.56 -169.2,0 -304.56,-135.36 -304.56,-304.56 0,-169.19 135.36,-304.55 304.56,-304.55z"/>
   <path class="fil2" d="M1649.66 2161.53c0,-130.37 -166.93,-249.58 -280.6,-249.58 -155.73,0 -249.5,124.73 -249.5,268.99 0,308.62 0,600.99 0,909.62 0,276.13 0,552.27 0,828.4l0 0c0,113.7 97.46,211.16 211.16,211.16 389.83,0 653.07,0 1042.91,0l94.24 -471.8c-93.26,0 -787.99,104.01 -787.99,-145.45 17.46,-261.89 -30.22,-1037.15 -30.22,-1351.34z"/>
   <path class="fil2" d="M6360.88 2161.53c0,-130.37 166.93,-249.58 280.6,-249.58 155.73,0 249.5,124.73 249.5,268.99 0,308.62 0,600.99 0,909.62 0,276.13 0,552.27 0,828.4l0 0c0,113.7 -97.46,211.16 -211.16,211.16 -389.83,0 -653.08,0 -1042.91,0l-94.24 -471.8c93.25,0 787.99,104.01 787.99,-145.45 -17.46,-261.89 30.22,-1037.15 30.22,-1351.34z"/>
  </g>
 </g>
</svg>
