<?xml version="1.0" encoding="UTF-8" standalone="no"?>
<!-- Created with Inkscape (http://www.inkscape.org/) -->

<svg
   width="897.52649mm"
   height="897.52649mm"
   viewBox="0 0 897.52649 897.52649"
   version="1.1"
   id="svg5"
   inkscape:version="1.1.1 (3bf5ae0d25, 2021-09-20)"
   sodipodi:docname="mountains.svg"
   xmlns:inkscape="http://www.inkscape.org/namespaces/inkscape"
   xmlns:sodipodi="http://sodipodi.sourceforge.net/DTD/sodipodi-0.dtd"
   xmlns="http://www.w3.org/2000/svg"
   xmlns:svg="http://www.w3.org/2000/svg">
  <sodipodi:namedview
     id="namedview7"
     pagecolor="#ffffff"
     bordercolor="#666666"
     borderopacity="1.0"
     inkscape:pageshadow="2"
     inkscape:pageopacity="0.0"
     inkscape:pagecheckerboard="0"
     inkscape:document-units="mm"
     showgrid="false"
     fit-margin-top="0"
     fit-margin-left="0"
     fit-margin-right="0"
     fit-margin-bottom="0"
     showguides="false"
     inkscape:guide-bbox="true"
     inkscape:zoom="0.125"
     inkscape:cx="-480"
     inkscape:cy="-60"
     inkscape:window-width="2560"
     inkscape:window-height="1417"
     inkscape:window-x="-8"
     inkscape:window-y="-8"
     inkscape:window-maximized="1"
     inkscape:current-layer="layer1">
    <sodipodi:guide
       position="254.19865,677.18375"
       orientation="0,-1"
       id="guide893" />
    <sodipodi:guide
       position="692.13551,655.64311"
       orientation="0,-1"
       id="guide933" />
    <sodipodi:guide
       position="251.14684,424.5814"
       orientation="0.85087995,0.52536017"
       id="guide935"
       inkscape:label=""
       inkscape:locked="false"
       inkscape:color="rgb(0,0,255)" />
    <sodipodi:guide
       position="244.94846,473.62959"
       orientation="0.85087998,0.52536013"
       id="guide1256"
       inkscape:label=""
       inkscape:locked="false"
       inkscape:color="rgb(0,0,255)" />
    <sodipodi:guide
       position="594,282.43371"
       orientation="0.85081111,-0.52547165"
       id="guide1258"
       inkscape:label=""
       inkscape:locked="false"
       inkscape:color="rgb(0,0,255)" />
    <sodipodi:guide
       position="831.46392,706.33062"
       orientation="0.85081111,-0.52547165"
       id="guide1849"
       inkscape:label=""
       inkscape:locked="false"
       inkscape:color="rgb(0,0,255)" />
  </sodipodi:namedview>
  <defs
     id="defs2" />
  <g
     inkscape:label="Слой 1"
     inkscape:groupmode="layer"
     id="layer1"
     transform="translate(554.56738,493.33026)">
    <path
       style="display:inline;fill:#000000;stroke-width:0.897527"
       d="m -221.78432,111.83388 c 0,0 0.68354,-0.23129 1.14915,-0.23129 1.39177,0 1.6047,-0.4656 1.18123,-2.58292 -0.61497,-3.07485 0.93708,-6.39234 2.99057,-6.39234 0.80763,0 2.26638,0.7068 3.24167,1.57067 0.97528,0.86387 -0.18322,-1.3881 -2.57443,-5.004392 -3.44759,-5.213866 -4.15295,-6.886155 -3.40709,-8.077738 1.35067,-2.157869 5.49827,-2.398496 7.72252,-0.448045 1.81978,1.595784 1.84847,1.591736 1.11425,-0.157103 -1.52495,-3.632308 -1.56494,-9.022376 -0.0761,-10.258001 1.14973,-0.954178 1.68548,-0.962929 2.79085,-0.04559 2.18156,1.810526 2.72413,0.176642 0.94276,-2.838975 -1.40847,-2.384351 -2.45937,-8.74041 -2.41395,-14.600037 0.0141,-1.820749 1.78133,-3.400306 2.97731,-2.661148 0.3938,0.243382 0.71601,-1.753246 0.71601,-4.436958 0,-4.581891 1.51978,-7.76793 2.99954,-6.288178 0.3248,0.324814 0.59056,-0.701085 0.59056,-2.279772 0,-1.699888 0.53903,-3.077178 1.32188,-3.377589 0.72703,-0.278987 1.58747,-1.982825 1.91208,-3.786314 1.21192,-6.73319 4.84378,-7.839311 4.84378,-1.475229 0,2.92275 0.49367,4.470337 1.77633,5.568587 1.39638,1.195622 1.66432,2.221378 1.25268,4.795663 -0.39745,2.485484 -0.18407,3.405045 0.88536,3.815421 1.24732,0.478642 1.26815,1.008775 0.18146,4.619578 l -1.22756,4.078935 h 2.60474 c 2.81628,0 3.33856,1.439444 1.66016,4.575545 -0.84989,1.588038 -0.71494,1.70732 1.34629,1.189985 2.12081,-0.532287 2.29087,-0.347683 2.29087,2.486858 0,2.009122 -0.95245,4.356961 -2.77023,6.828749 -1.52362,2.071806 -2.49102,3.766919 -2.14978,3.766919 1.03636,0 9.58973,-4.444937 14.11965,-7.337575 4.63566,-2.960141 5.08887,-3.937386 2.69258,-5.805848 -1.46281,-1.140612 -1.3899,-1.374427 1.06186,-3.405036 l 2.63252,-2.180325 -3.97107,-0.284022 c -2.97366,-0.212678 -4.04798,-0.689336 -4.2773,-1.897775 -0.22341,-1.177277 0.68422,-2.002821 3.35564,-3.052191 2.83531,-1.113741 3.44308,-1.70207 2.69254,-2.606417 -0.53314,-0.642396 -0.70681,-1.995148 -0.38595,-3.006113 0.33923,-1.06881 0.18244,-1.838125 -0.37461,-1.838125 -0.52691,0 -0.95801,-0.610219 -0.95801,-1.356046 0,-0.751364 2.19444,-2.432288 4.92129,-3.769665 3.84282,-1.884689 5.29782,-3.210201 6.63946,-6.048548 l 1.71817,-3.634928 -2.60059,-0.698805 c -4.19112,-1.126199 -3.30343,-3.530286 3.00895,-8.148966 3.95046,-2.890511 4.17482,-3.903173 1.12191,-5.06389 -3.22832,-1.227403 -2.78517,-2.930271 1.72418,-6.625343 2.60816,-2.13719 4.18312,-4.2504429 4.59573,-6.1664286 1.10009,-5.1084246 3.01554,-7.99097456 5.10507,-7.68259343 1.84304,0.27201335 2.52019,1.58187253 3.80072,7.35203443 0.31545,1.4214037 2.16826,4.1632486 4.11738,6.0929846 1.94911,1.929735 3.54384,3.931973 3.54384,4.449415 0,0.517442 -1.21166,1.398158 -2.69258,1.957138 -4.47237,1.68813 -3.41543,3.568314 4.38843,7.806559 3.2136,1.745286 4.13808,2.747859 4.13808,4.487633 0,1.752133 -0.65911,2.453299 -3.02498,3.218 -1.66375,0.537753 -3.38959,1.629244 -3.83521,2.42553 -0.94573,1.689907 0.0286,2.323418 7.14857,4.648146 7.86516,2.568021 7.17684,6.393646 -0.96153,5.344079 -4.25726,-0.549035 -6.05963,0.722581 -2.58656,1.824887 0.92217,0.292692 2.39837,1.329622 3.28044,2.3043 1.49172,1.648326 1.50047,1.886278 0.12526,3.405871 -1.38668,1.532266 -1.3117,1.793545 1.20718,4.206787 3.24257,3.106582 3.54241,6.284131 0.66626,7.060868 -1.94839,0.526184 -1.89941,0.659691 1.39277,3.795164 3.79121,3.610749 3.9983,5.830224 0.62195,6.665813 l -2.2391,0.55415 2.01943,0.667599 c 1.33953,0.442821 2.01944,1.384847 2.01944,2.797958 0,1.171703 0.44904,2.407893 0.99787,2.747086 1.79059,1.106641 2.57761,-1.749692 2.02054,-7.333097 -0.50413,-5.052733 -0.39949,-5.514429 1.3536,-5.972877 1.57429,-0.411686 1.80729,-0.960264 1.35927,-3.200346 -0.4145,-2.072487 -0.099,-3.081666 1.35164,-4.323762 1.21034,-1.03632 1.89234,-2.680526 1.89234,-4.562145 0,-3.808008 1.54329,-3.763661 3.1537,0.09061 0.69688,1.667874 1.93208,3.287685 2.74489,3.599593 1.14468,0.439249 1.34819,1.258224 0.90271,3.632828 -0.507,2.702497 -0.33592,3.100164 1.44391,3.356247 1.80445,0.259636 2.0356,0.839815 2.17473,5.458486 0.0856,2.842386 -0.20441,5.390518 -0.6445,5.662513 -1.64078,1.014052 -0.71808,2.06721 1.66803,1.903851 2.604591,-0.178302 2.732408,0.178527 3.074195,8.581915 0.08903,2.189561 0.445307,2.468198 3.155775,2.468198 2.162931,0 3.708256,-0.70446 5.290523,-2.411761 2.060012,-2.222779 2.466026,-2.328274 5.181645,-1.34629 4.077768,1.474546 4.115303,1.452548 3.542726,-2.075871 -0.595761,-3.671198 0.205847,-3.916222 4.415417,-1.349647 1.616257,0.98544 3.886056,1.793213 5.043991,1.795053 2.295702,0.0036 7.318692,-2.621621 7.318692,-3.825141 0,-0.810798 -5.821007,-0.365401 -8.18073,0.625944 -0.993741,0.417484 -2.229707,-0.32354 -3.932162,-2.357542 -1.365587,-1.631523 -3.237701,-3.256307 -4.16026,-3.610632 -1.024078,-0.393305 -1.677378,-1.525275 -1.677378,-2.906379 0,-1.810931 -0.402801,-2.219512 -2.019435,-2.048353 -1.597391,0.169121 -2.078393,-0.297907 -2.301527,-2.234653 -0.155146,-1.346649 -1.265836,-3.222264 -2.468198,-4.168041 -2.420898,-1.904282 -2.969951,-5.500114 -0.839815,-5.500114 0.740459,0 2.154063,-0.807774 3.141342,-1.795053 2.147763,-2.147763 3.006328,-2.23362 4.487633,-0.448763 1.969038,2.372548 2.787062,1.439856 1.284899,-1.465015 -0.799589,-1.546214 -1.285258,-3.959528 -1.079285,-5.362918 0.291804,-1.988246 -0.284049,-3.189908 -2.60814,-5.442502 -2.96304,-2.871887 -4.054953,-7.026385 -1.846724,-7.026385 0.624751,0 2.543213,-0.760384 4.263251,-1.689737 2.860758,-1.545702 3.3535,-1.57384 5.780376,-0.330128 2.201857,1.128388 2.722386,1.151553 3.060834,0.136217 0.224283,-0.672857 1.554714,-2.229788 2.956507,-3.459839 2.983405,-2.617896 3.213028,-3.631778 0.82252,-3.631778 -2.377584,0 -7.249079,-4.271041 -7.249079,-6.355573 0,-1.052377 1.697177,-2.831086 4.419896,-4.632224 2.951587,-1.952551 4.579225,-3.719826 4.899516,-5.319873 0.277165,-1.384614 1.280582,-2.650225 2.377099,-2.99825 1.740986,-0.552562 1.781034,-0.730892 0.485643,-2.1622942 -1.949069,-2.1536956 -1.766494,-4.3265264 0.421918,-5.0211042 1.725243,-0.547563 1.645579,-0.7902901 -1.34629,-4.10192945 -3.713982,-4.11094055 -3.81228,-4.65087455 -1.276695,-7.01311945 l 1.903348,-1.773243 -2.046235,-3.3108677 -2.046225,-3.310858 2.016903,-1.521362 c 1.542489,-1.163499 1.94555,-2.239077 1.713558,-4.57261 -0.368076,-3.702207 1.780836,-4.612999 4.357769,-1.846984 1.677396,1.800474 1.691335,1.79613 4.158761,-1.296199 1.639933,-2.055263 2.055264,-3.102731 1.230275,-3.102731 -0.684992,0 -1.980302,-0.81201 -2.878457,-1.804459 -1.584538,-1.750885 -1.573077,-1.868255 0.386125,-3.95373 1.940964,-2.066061 1.959947,-2.239633 0.490211,-4.482723 -1.245076,-1.900234 -1.319068,-2.586303 -0.398556,-3.695466 1.00873,-1.21544 1.366233,-1.207469 3.322087,0.07405 2.035114,1.333455 2.282195,1.318861 3.458035,-0.204161 0.778407,-1.008245 1.04087,-2.504781 0.681196,-3.884045 -0.321808,-1.234099 -0.6223,-3.253534 -0.667751,-4.487633 -0.07342,-1.993945 0.242206,-2.218452 2.834335,-2.016015 2.646348,0.206665 2.916961,-0.0036 2.916961,-2.268498 0,-2.931636 2.24115,-6.485805 4.089759,-6.485805 0.995985,0 1.2954,1.348435 1.2954,5.833922 0,5.476599 0.957472,7.516156 2.113818,4.502765 0.310912,-0.810242 1.09527,-1.106883 2.004356,-0.758033 1.239754,0.475743 1.404252,1.427399 0.968064,5.600601 -0.624598,5.975839 -0.12446,6.976276 3.440263,6.881632 3.424136,-0.09091 3.927514,2.323328 1.615135,7.746246 -1.363414,3.197438 -1.500494,4.726545 -0.808608,9.020204 0.629327,3.905443 0.540777,5.716346 -0.362027,7.403238 -1.813147,3.387912 -0.792462,3.362978 3.567444,-0.08715 4.927779,-3.899484 6.855146,-3.736286 6.499914,0.55039 -0.142151,1.715388 -0.247978,4.6926273 -0.23517,6.6160805 0.01741,2.6124303 -0.554438,4.0326044 -2.260259,5.6135076 -2.702883,2.50494258 -2.356151,3.320489 2.455327,5.7751252 2.639877,1.3467565 4.514953,1.6945749 6.933078,1.2860388 2.869374,-0.484781 3.84591,-0.1395205 7.2707096,2.5706236 2.1758825,1.7218327 4.2791191,2.9309983 4.6738692,2.6870323 C -1.1042773,9.7134933 -1.7158339,6.206983 -3.9547406,1.6555813 -6.559174,-3.6388826 -6.780908,-7.7285069 -4.6080233,-10.393505 l 1.5706714,-1.926397 3.12727848,2.8659901 3.12726952,2.8659816 0.7656888,-3.2376652 c 0.6493784,-2.7458475 0.3268433,-4.1291155 -2.1232964,-9.1060435 -2.44506855,-4.966633 -2.80967074,-6.525116 -2.3727728,-10.142346 0.33457993,-2.770062 0.0427223,-5.54963 -0.8292875,-7.89931 -1.006944,-2.713088 -1.1127534,-4.237545 -0.4205002,-6.058303 1.31077463,-3.447597 2.9972,-3.023318 5.4913004,1.381526 1.7330519,3.060754 2.2293302,3.466535 2.5115394,2.053586 0.193435,-0.968503 -0.098288,-1.910906 -0.6482744,-2.094235 -1.4151479,-0.471713 -1.3718333,-21.388604 0.046133,-22.264939 0.610309,-0.377195 1.953242,0.441986 3.2237446,1.966462 l 2.177659,2.612978 -0.561851,-3.590106 c -0.309027,-1.974558 -0.780884,-4.695347 -1.0485802,-6.046196 -0.3873994,-1.954885 0.094195,-2.986672 2.3600192,-5.05618 2.37122,-2.165776 2.953338,-3.504221 3.484951,-8.012838 0.6414,-5.4398 2.04619,-8.259344 4.11507,-8.259344 1.22787,0 2.255915,5.775484 2.255915,12.673541 0,3.886424 0.236938,4.404728 2.243816,4.908429 2.456099,0.616439 2.857554,2.6486 1.420497,7.190461 -0.452829,1.431169 -1.064098,3.703805 -1.35837,5.050301 -0.507265,2.321084 -0.394634,2.42009 2.169617,1.907244 3.205983,-0.641193 3.199359,-0.694443 0.909598,7.312426 -2.629169,9.193741 -2.615114,9.239327 2.69258,8.729325 5.502717,-0.528742 5.663545,0.211475 1.736283,7.991334 -1.513239,2.997711 -2.565364,5.636358 -2.338066,5.863657 0.227299,0.227307 1.821638,-0.823283 3.542977,-2.334637 1.721339,-1.511354 3.938023,-2.747912 4.925967,-2.747912 1.068999,0 1.995497,-0.761839 2.288324,-1.881619 0.697836,-2.668517 -0.125662,-4.252122 -2.378014,-4.57297 -1.356172,-0.193183 -1.950128,-0.915324 -1.965332,-2.38944 -0.01373,-1.335384 -0.858484,-2.550976 -2.296106,-3.304225 -1.250883,-0.655401 -2.760872,-2.259479 -3.355528,-3.564608 -1.034777,-2.271083 -0.929856,-2.432422 2.443506,-3.757512 1.938586,-0.761498 3.723479,-2.144667 3.96643,-3.073696 0.524263,-2.004805 4.364061,-2.307936 5.893357,-0.465242 1.262981,1.521792 8.179311,1.655649 8.179311,0.158287 0,-0.586084 -1.514576,-1.439749 -3.365724,-1.897038 -2.885314,-0.712762 -3.404291,-1.226686 -3.635943,-3.600464 -0.16448,-1.685582 0.274491,-3.221097 1.121908,-3.92439 1.715281,-1.423557 1.781429,-3.085256 0.175844,-4.417778 -1.275062,-1.058201 -2.658276,-12.682695 -1.781124,-14.968515 0.801976,-2.089927 3.140688,-1.502244 6.45528,1.622108 2.195736,2.069723 2.870487,2.395579 2.323077,1.121908 -0.424315,-0.987279 -0.628502,-3.612544 -0.453745,-5.833922 0.317186,-4.031743 0.293168,-6.343215 -0.153854,-14.809189 -0.215065,-4.073 -0.05789,-4.48763 1.701379,-4.48763 2.895716,0 3.388979,-0.94552 3.419234,-6.55428 0.02486,-4.60976 0.226554,-5.14182 2.047025,-5.40037 1.68306,-0.23903 2.019435,-0.84584 2.019435,-3.64294 0,-1.84588 0.606099,-4.14014 1.346891,-5.09836 1.321751,-1.7097 1.380368,-1.70268 3.141342,0.37665 0.986947,1.16538 1.794452,3.28579 1.794452,4.71201 0,2.28293 0.322122,2.59316 2.692579,2.59316 2.992821,0 3.148604,0.51349 1.661519,5.47693 -1.277871,4.26515 0.114579,6.74455 2.938906,5.23302 3.251021,-1.7399 4.711341,1.49843 2.181025,4.83651 -1.064313,1.40408 -1.028619,2.01249 0.252923,4.31117 1.444955,2.591747 1.425057,2.731662 -0.62922,4.425501 -2.031201,1.67482 -2.058225,1.845467 -0.636104,4.015902 1.384803,2.113468 1.61763,2.174033 3.442957,0.895525 3.522576,-2.46731 4.533469,-1.807098 4.03291,2.633881 -0.377401,3.348285 -0.146961,4.20729 1.405131,5.237848 l 1.856579,1.232716 -2.007202,3.401949 c -1.817904,3.081119 -1.87679,3.546064 -0.624337,4.930005 2.036111,2.249884 1.706207,4.097325 -1.354107,7.582825 -2.677923,3.049992 -2.697292,3.13847 -0.897527,4.101678 2.20709,1.181198 2.326434,2.485637 0.420132,4.592077 -1.301234,1.437847 -1.263896,1.723736 0.448764,3.436396 1.027443,1.027443 1.868075,2.359059 1.868075,2.959154 0,0.600095 1.879654,2.999435 4.177017,5.331864 4.08116,4.143466 4.143682,4.291657 2.72437,6.457801 -0.798951,1.219353 -2.880558,2.688263 -4.62578,3.264241 -1.745222,0.575979 -3.168834,1.318826 -3.163575,1.650767 0.0054,0.33195 1.371609,1.926702 3.036342,3.543892 2.526303,2.454161 3.119604,2.698477 3.588113,1.477544 0.37539,-0.978259 1.079096,-1.249033 2.124436,-0.817467 2.377189,0.981418 7.397028,2.096766 7.397028,1.643524 0,-0.220514 -1.195156,-0.817566 -2.655907,-1.326787 -3.262033,-1.137157 -4.323313,-3.903683 -2.338739,-6.09661 1.22577,-1.354466 1.257902,-1.761324 0.207912,-2.632741 -1.78027,-1.47749 -1.853113,-11.711339 -0.08823,-12.388603 0.719224,-0.27599 1.918112,0.0045 2.664217,0.624041 0.746105,0.619203 1.522681,0.959707 1.725719,0.75666 0.701794,-0.701794 0.744472,-9.323963 0.06462,-13.049273 -0.634901,-3.478902 -0.53489,-3.759478 1.439714,-4.038869 1.843682,-0.260866 2.157892,-0.859417 2.395562,-4.5635 0.22658,-3.531121 0.57339,-4.263251 2.01944,-4.263251 0.96023,0 1.7737,-0.302915 1.80772,-0.673145 0.28764,-3.131174 0.81285,-5.885889 1.19505,-6.268083 1.06597,-1.065965 3.30438,0.802353 3.77389,3.149914 0.27871,1.393554 1.38121,2.932444 2.44999,3.419756 2.01327,0.917945 2.03722,1.037989 1.01764,5.100302 -0.55381,2.206551 -0.37857,2.451468 1.75401,2.451468 2.68772,0 3.92898,2.091667 2.36183,3.979964 -0.80418,0.968979 -0.78451,1.688786 0.0841,3.07971 0.95489,1.529008 0.873,2.103138 -0.5194,3.641723 -1.43537,1.586073 -1.47184,1.896069 -0.27695,2.354589 0.75683,0.290421 1.92249,0.452937 2.59037,0.361137 2.33586,-0.321063 3.21632,-0.09996 3.3007,1.124747 l 64.16886,-103.898232 c -0.18645,-0.15733 -3.78208,-3.01769 -10.69303,-7.60376 -6.91096,-4.58607 -15.79647,-11.03312 -19.74559,-14.32679 -8.23624,-6.86923 -12.8664,-10.24165 -13.41235,-9.69569 -1.06937,1.06937 2.91497,16.3511 6.78941,26.04043 4.01814,10.0487 4.27616,11.12265 2.9179,12.14535 -2.24107,1.68742 -2.74789,1.43085 -4.6888,-2.37367 -0.98082,-1.92256 -4.2516,-7.41345 -7.26839,-12.20198 -6.5863,-10.45436 -7.87744,-13.84964 -9.01335,-23.70214 -0.72763,-6.31125 -1.85058,-9.73704 -6.90256,-21.05771 -5.78668,-12.96704 -6.3592,-13.86128 -13.99302,-21.85648 -4.37769,-4.58494 -8.27459,-8.33627 -8.65977,-8.33627 -0.38517,0 -0.99166,2.90116 -1.34776,6.44702 l -0.64745,6.44701 4.97664,4.54769 c 5.82359,5.32165 6.4826,6.49365 7.35161,13.07418 0.45691,3.46 1.55591,6.20424 3.67456,9.17544 3.07083,4.30659 3.21959,6.3825 0.53128,7.4141 -1.04983,0.40286 -2.86826,-0.85843 -6.12772,-4.25026 -4.18515,-4.35513 -4.69946,-5.34006 -5.30053,-10.15077 -0.62575,-5.00843 -1.02031,-5.69503 -6.584921,-11.45897 l -5.919276,-6.13131 -0.136424,-5.98639 c -0.318353,-13.97033 -2.956139,-34.04694 -5.286844,-40.23906 -1.269857,-3.37368 -2.638656,-6.4638 -3.041772,-6.86692 -0.882896,-0.88289 -7.067374,7.62595 -13.578193,18.68142 -2.616442,4.44276 -6.101475,10.04153 -7.744532,12.4417 -1.643057,2.40019 -2.987372,5.14909 -2.987372,6.10867 0,2.09865 7.783431,20.35083 9.534209,22.35776 1.499371,1.71875 1.560807,2.83573 0.22921,4.16732 -1.706368,1.70637 -3.530788,0.22667 -7.884555,-6.39482 -7.216714,-10.97565 -11.058549,-15.90673 -12.096117,-15.52562 -0.551,0.20239 -3.154411,1.07579 -5.785339,1.94088 -5.021894,1.65128 -7.172224,4.03257 -9.223907,10.21461 -0.826406,2.49009 -0.712268,3.55718 0.672041,6.28269 2.313231,4.55444 7.812313,11.75556 16.457181,21.55089 6.976572,7.90502 8.366885,10.90186 5.057687,10.90186 -0.71549,0 -6.26487,-4.69303 -12.33196,-10.42895 -6.067091,-5.73592 -13.551474,-12.65549 -16.631965,-15.37682 -7.64575,-6.75433 -8.537083,-8.84698 -7.174198,-16.84358 0.732471,-4.29769 1.851498,-7.31934 3.521436,-9.50874 1.34629,-1.76508 2.447797,-4.28688 2.447797,-5.60403 0,-1.31714 -2.264747,-7.7412 -5.032772,-14.27571 -2.768026,-6.53449 -5.796935,-14.06384 -6.730919,-16.73188 -2.793103,-7.97885 -4.840791,-9.86077 -18.1739063,-16.7026 -13.9492217,-7.15798 -14.1911867,-7.44689 -15.7742347,-18.83511 -1.869691,-13.4503 -1.526199,-12.6145 -6.596838,-16.05187 -2.57634,-1.74648 -8.521026,-5.80172 -13.210414,-9.01164 -9.642647,-6.60045 -9.700412,-6.58618 -9.810054,2.4236 -0.06229,5.11854 0.0036,5.25516 5.268839,10.91484 5.930164,6.37448 10.823551,15.14273 10.823551,19.39426 0,4.46376 -2.596114,2.97974 -6.695817,-3.82753 -2.673202,-4.43866 -4.922601,-6.87601 -8.562134,-9.27752 -9.187583,-6.06235 -9.028003,-5.67263 -8.928144,-21.80433 0.06166,-9.95445 -0.280522,-15.12634 -1.167799,-17.65283 -1.323843,-3.76958 -8.261803,-14.15583 -11.281531,-16.88865 -1.759071,-1.59194 -1.808821,-1.49951 -3.632182,6.74813 -1.016772,4.59918 -2.326389,10.98743 -2.910257,14.19609 -0.583868,3.20865 -1.5924,6.89292 -2.241195,8.18726 -0.648795,1.29434 -1.875454,7.40351 -2.725905,13.57593 -1.330565,9.65704 -1.385942,12.11973 -0.396976,17.65368 1.323349,7.40501 1.789273,7.85625 11.29459,10.93875 3.455477,1.12059 9.513781,3.14294 13.462898,4.49412 3.949116,1.35118 9.494304,2.91813 12.322626,3.48211 4.319184,0.86126 5.651302,1.61992 8.321165,4.73906 3.01612,3.52366 3.696032,5.12927 5.812364,13.72595 0.885086,3.5953 14.22303,23.45248 20.2604756,30.16328 2.1649056,2.40636 3.1123974,4.46527 3.5107915,7.62897 0.8165247,6.48417 2.3443482,14.72767 3.3462839,18.05516 0.64724226,2.14954 0.58786191,3.31429 -0.2185028,4.28589 -2.2523338,2.7139 -4.970035,-1.69061 -8.8961662,-14.4178 -2.665743,-8.64144 -8.030492,-16.79009 -15.954188,-24.23321 -5.891508,-5.53419 -7.39981,-7.6719 -12.660195,-17.94322 l -5.971863,-11.66053 -5.385159,-1.61268 c -6.353024,-1.90253 -15.730408,-3.03823 -15.651157,-1.89553 0.03052,0.44055 2.056691,3.83015 4.502532,7.53245 7.820274,11.83764 7.453527,9.25804 5.46897,38.46701 -1.588317,23.3772 -1.619587,25.90786 -0.345198,27.93276 0.770751,1.22465 8.90384,10.45349 18.073527,20.50854 17.688703,19.39657 18.425815,20.30717 17.565311,21.6995 -1.795959,2.90593 -6.015231,-0.30543 -26.921405,-20.49034 -3.949117,-3.81287 -9.40159,-8.9663 -12.116608,-11.45207 -9.05238,-8.28802 -8.975265,-8.00642 -8.975265,-32.77433 v -21.5039 l -2.658464,-2.89147 c -1.462152,-1.59031 -7.182447,-7.87703 -12.711758,-13.9705 -5.52931,-6.09348 -10.596368,-11.28744 -11.260125,-11.54214 -1.639179,-0.62902 -4.888108,1.62755 -10.526758,7.31143 -3.82692,3.85763 -5.02832,5.8372 -6.30583,10.39025 l -1.57822,5.62467 2.91886,4.13505 c 13.082125,18.53309 14.483577,20.9601 13.744976,23.80334 -1.537661,5.91921 -0.906394,12.50244 1.675906,17.4773 2.489038,4.7952 3.167398,8.17949 1.639539,8.17949 -1.85955,0 -6.434071,-4.88425 -9.076241,-9.69078 -2.52148,-4.58695 -2.76464,-5.6787 -2.34197,-10.51462 0.2594,-2.96792 0.68784,-5.99707 0.95208,-6.73145 0.29117,-0.80923 -2.18544,-4.51742 -6.28668,-9.41297 -3.72191,-4.44276 -7.85184,-9.79354 -9.17763,-11.89062 -1.32578,-2.09709 -2.69894,-3.81361 -3.05147,-3.81449 -0.35252,-8.8e-4 -3.78556,2.84225 -7.62897,6.31809 -3.84342,3.47583 -8.67726,7.61567 -10.74189,9.19964 -4.26983,3.27581 -5.01965,4.5848 -6.55096,11.43621 l -1.09664,4.90665 5.92511,12.62259 c 3.25882,6.94242 5.92512,13.24556 5.92512,14.00697 0,0.76141 -1.342,3.15899 -2.98221,5.32795 -1.64022,2.16895 -4.70048,6.49148 -6.80057,9.60562 -3.1267,4.63646 -4.0497,5.47007 -5.09553,4.60212 -2.11317,-1.75378 -1.45258,-5.7676 1.70963,-10.38786 3.55254,-5.19056 5.23469,-9.66606 4.43278,-11.79385 -0.32032,-0.84996 -3.7563,-6.45962 -7.6355,-12.46593 -3.87919,-6.00629 -7.26826,-12.26654 -7.53124,-13.91166 -0.67152,-4.20064 2.14393,-19.50439 4.1829,-22.73669 l 1.69852,-2.69258 -14.54946,-14.8 c -8.0022,-8.13999 -14.7813,-14.91506 -15.06466,-15.05571 -0.89478,-0.44412 -8.0113,18.60004 -8.0113,21.43865 0,1.49173 1.02598,4.46298 2.27997,6.60275 2.05148,3.50056 2.25387,4.686 2.01944,11.82767 -0.20816,6.34111 -0.53127,7.93717 -1.60684,7.93717 -1.84744,0 -3.47852,-5.24833 -3.53944,-11.38888 -0.046,-4.63416 -0.38254,-5.48964 -3.64077,-9.25423 -1.97456,-2.28143 -3.59238,-4.83028 -3.59516,-5.66413 -0.003,-0.83385 1.47898,-7.83409 3.29281,-15.55609 l 3.29788,-14.04002 -2.72462,-3.46175 c -1.49853,-1.90397 -3.61902,-5.22665 -4.71219,-7.38374 -2.72787,-5.3828 -11.65196,-17.31429 -12.53974,-16.76562 -0.3978,0.24586 -1.24736,2.37588 -1.88792,4.73339 -0.64055,2.3575 -2.66864,7.31552 -4.50687,11.01782 -1.83821,3.70229 -4.22009,9.68064 -5.29306,13.28521 -3.55684,11.94897 -5.0831,14.59237 -12.28078,21.26956 l -6.77242,6.28268 -3.55367,12.93206 -3.55367,12.93206 4.35785,4.33506 c 4.59382,4.5698 6.18537,7.55076 14.05058,26.31659 l 4.87836,11.63946 7.02043,3.83604 c 3.86123,2.10982 11.46318,5.70131 16.89322,7.98108 10.39269,4.36332 12.71659,5.83958 11.7231,7.44706 -0.42639,0.68993 -1.32201,0.61201 -3.02315,-0.26304 -1.3295,-0.68387 -11.16249,-4.15326 -21.85109,-7.70976 -14.95371,-4.97564 -19.93359,-7.01595 -21.60169,-8.85047 -1.19232,-1.31127 -6.5101,-9.71774 -11.81728,-18.68104 -5.30718,-8.9633 -10.3283,-16.88917 -11.15803,-17.61304 -0.82974,-0.72386 -7.47866,-4.43676 -14.77539,-8.25089 -9.43246,-4.93049 -13.84226,-6.78183 -15.25795,-6.40562 -2.91507,0.77465 -15.90394,12.57654 -25.51253,23.18108 -7.43546,8.20615 -8.33695,9.56513 -8.12757,12.25217 0.21329,2.73722 0.91267,3.43163 7.41571,7.36304 3.94912,2.38742 10.00742,5.19885 13.4629,6.24761 9.47669,2.87621 10.47778,3.61667 13.65461,10.09964 1.84386,3.76277 4.11011,6.80178 6.28251,8.42477 8.15992,6.09623 21.37445,16.76029 21.64827,17.47003 0.78879,2.04456 -3.69248,0.19693 -14.4457,-5.95597 -6.47038,-3.7023 -12.15651,-6.73145 -12.63584,-6.73145 -2.06448,0 -7.07559,-4.94339 -9.13917,-9.01568 -1.46936,-2.89964 -2.92924,-4.55146 -4.25017,-4.80895 -1.10662,-0.21572 -4.83924,-1.09338 -8.29472,-1.95033 -3.45548,-0.85697 -7.2924,-1.54388 -8.5265,-1.52645 -1.26322,0.0179 -15.25557,7.72775 -32.0172,17.6418 -16.37537,9.68558 -31.0312,20.05791 -31.77399,20.05791 0,0 -48.79814,-79.03409 -74.38353,-120.47251 56.19521,0 100.39123,0 159.01648,0 l 6.8565,-12.98598 c 4.66198,-8.82965 7.57467,-13.35302 9.10032,-14.13271 1.2341,-0.63069 6.99542,-2.88073 12.80294,-5.0001 l 10.55912,-3.8534 19.95678,-19.7253 c 25.93958,-25.63873 24.29979,-24.25102 26.68354,-22.58137 1.05551,0.73931 5.22432,5.16335 9.26402,9.8312 11.43937,13.21815 25.64473,29.15158 31.76289,35.62684 4.90841,5.1949 5.72302,5.73513 6.85905,4.54874 0.70902,-0.74046 7.80034,-13.4629 15.75849,-28.27209 7.95814,-14.80918 15.41723,-27.76666 16.57572,-28.7944 1.42311,-1.26247 5.38356,-2.52155 12.20934,-3.88152 5.55663,-1.1071 11.10386,-2.46894 12.32717,-3.02632 2.43728,-1.1105 29.206571,-29.88177 35.471557,-38.12436 2.151694,-2.83089 4.49939,-5.23742 5.217097,-5.34784 1.503806,-0.23136 34.119147,46.97975 35.193854,50.94353 0.57272,2.11234 2.893158,3.69297 14.658618,9.9851 7.687996,4.11152 14.8652465,8.34989 15.9494585,9.4186 1.2897814,1.27133 3.4859031,6.961 6.3524142,16.45768 2.4096253,7.98302 5.0791922,15.37667 5.9323809,16.43031 0.8531887,1.05364 6.1348984,4.14874 11.7371244,6.87799 8.905626,4.33858 10.269534,5.30072 10.851436,7.65487 1.099883,4.44967 10.162549,19.74559 11.699052,19.74559 0.768677,0 9.948147,-7.26997 20.398829,-16.15548 10.450673,-8.88551 19.475984,-16.25307 20.056253,-16.37234 0.58026,-0.11928 6.507498,6.84143 13.171632,15.46824 l 11.967764,15.26452 c 58.75736,0 116.32448,0 174.23059,0 C 180.15397,-106.08476 19.747491,153.63545 -88.129417,328.30305 -119.78954,277.02592 -197.36805,151.37879 -221.78432,111.83388 Z m 467.37561,-363.28075 c 0,0 -67.33946,0 -108.02317,0 l 2.94794,6.36418 c 1.62136,3.5003 3.64175,6.63042 4.48974,6.95583 0.848,0.32541 3.46563,0.59165 5.81694,0.59165 2.94095,0 4.71115,0.49017 5.67227,1.57067 0.76844,0.86387 5.31489,10.0523 10.10324,20.41873 14.32561,31.01392 14.22183,30.82793 22.16434,39.72077 4.08077,4.56905 6.04943,6.52437 6.04943,6.52437 19.31494,-31.20112 31.39925,-50.76729 50.77927,-82.1462 z m -614.01297,74.27032 c 4.6177,-4.71294 14.90416,-21.85389 14.89338,-24.81772 -0.004,-1.03604 -0.80846,-4.50896 -1.7882,-7.71762 -0.97974,-3.20866 -1.78443,-6.94874 -1.7882,-8.3113 -0.004,-1.73869 3.07712,-6.7512 10.336,-16.81072 5.68857,-7.88334 10.62096,-15.86265 10.90887,-16.61296 -29.41498,0 -47.49431,-0.0342 -86.13998,0 l 48.22379,78.10386 c 0.37015,0 3.05694,-1.48876 5.35434,-3.83354 z"
       id="path854"
       sodipodi:nodetypes="cssssssssssssssssssssssscssssssssscssssssssscssssssssssssssssssssssscsssssssssssssssssssssssssssssssssssssssssssssssssscccsssssssssssssssssssssssssssssssssscccsssssssssscssssssssssssssssssssssssssssssssssssssssssssssssssscssssssssssssssssssscssssssssssssssssccsssssssssssscssssssscssssssssssssssssssssssssssssssssssssssssssssssssssscsssssssssscssssscssssssssssssscsssssssssscsssssssscscssssssscccsscsssssssssssssssssssssssscccssscssssssssssssssssssssssccccccssssssccscscscccs" />
  </g>
</svg>
