<?xml version="1.0" encoding="UTF-8"?>
<!DOCTYPE svg PUBLIC "-//W3C//DTD SVG 1.1//EN" "http://www.w3.org/Graphics/SVG/1.1/DTD/svg11.dtd">
<!-- Creator: CorelDRAW 2021 (64-Bit) -->
<svg xmlns="http://www.w3.org/2000/svg" xml:space="preserve" width="80mm" height="94.2224mm" version="1.1" style="shape-rendering:geometricPrecision; text-rendering:geometricPrecision; image-rendering:optimizeQuality; fill-rule:evenodd; clip-rule:evenodd"
viewBox="0 0 8000 9422.24"
 xmlns:xlink="http://www.w3.org/1999/xlink"
 xmlns:xodm="http://www.corel.com/coreldraw/odm/2003">
 <defs>
  <style type="text/css">
   <![CDATA[
    .fil1 {fill:#282829}
    .fil2 {fill:#757576}
    .fil3 {fill:#767677}
    .fil4 {fill:#F9C02E}
    .fil5 {fill:#FCEB37}
    .fil0 {fill:#FDFDFD}
   ]]>
  </style>
 </defs>
 <g id="Capa_x0020_1">
  <metadata id="CorelCorpID_0Corel-Layer"/>
  <g id="_2328195330512">
   <path class="fil0" d="M6631.15 7244.07c454.72,46.2 479.62,527.72 130.2,647.84l-3793.21 25.71c-456.8,-50.83 -474.53,-525.72 -141.71,-652.07l3804.72 -21.48zm-5499.22 403.43c427.55,-282.21 251.87,252.52 655.32,-278.8 62.03,-81.7 189.63,-247.1 274.84,-321.7 171.19,-149.83 137.86,-138.53 381.29,-70.72 69.31,342.48 -158.24,497.71 -343.69,703.05 -152.21,168.51 -351.18,446.06 -520.79,592.9 -188.74,-197.42 -472.28,-223.09 -446.97,-624.73zm1944.82 -1220.79c-639.04,0 -668.96,-673.3 0,-673.3 652.01,0 3445.68,-104.05 3862.28,98.53 101.96,388.74 46.29,574.77 -425.25,574.77l-3437.03 0zm-1459.14 -287.81c392.26,-833.26 1014.86,-834.65 828.63,-373.04 -46.89,116.25 -720.89,855.21 -850.97,1001.51 -139.43,-65.97 -8.76,3.81 -111.66,-71.44 -406.81,-297.5 -398.8,-344.85 -322.48,-602.27 231.69,-43.4 217.36,-8.89 456.48,45.24zm1429.51 -1877.12c651.54,0 3486.55,-108.53 3896.99,101.58 91.08,390.8 37.38,573.02 -430.33,573.02 -1224.69,0 -2449.38,0 -3674.07,0l-143.44 -56.66c-172.95,-371.09 -124.73,-617.94 350.85,-617.94zm-1436.36 388.2c71.04,-150.91 85.3,-167.6 194.5,-288.03 118.84,-131.1 129.3,-164.96 213.86,-261.41 250.12,-285.35 550.83,-112.2 423.79,179.4 -18.84,43.22 -672.93,889.63 -927.1,1012.62 -338.69,-448.15 -466.78,-285.33 -359.2,-686.36 272.87,-55.94 192.75,-20.02 454.15,43.78zm5015.06 -1719.38c455.95,46.11 466.34,538.56 151.16,651l-3816.57 25.57c-414.71,-42.72 -507.45,-489 -102.29,-649.76l3767.7 -26.81zm-5037.63 390.08c143.5,-289.48 497.13,-744.38 843.21,-655.38 99.07,354.88 -125.95,460.22 -323.96,695.36 -145.56,172.81 -367.06,467.5 -504.67,601.42 -121.02,-68.04 -433.31,-265.15 -470.64,-422.6 -87.38,-368.79 269.43,-262.06 456.06,-218.8zm-1190.77 5701.74c388.43,119.89 6806.93,119.85 7195.87,0 85.86,-232.81 149.02,-7318.48 -14.22,-7529.39 -208.8,-250.63 -984.35,-128.94 -1361.58,-128.94 -9.05,11.93 -19.17,17.87 -22.53,38.94 -0.67,4.16 -121.06,273.25 -255.14,336.81 -159.06,75.42 -3733.04,55.33 -3846.91,16.77 -203.79,-68.97 -234.11,-279.19 -319.86,-392.52 -1793.48,0 -1434.05,-540.94 -1434.05,3144.43 0,714.5 -75.65,4147.82 58.42,4513.9z"/>
   <path class="fil1" d="M397.42 9022.42c-134.07,-366.08 -58.42,-3799.4 -58.42,-4513.9 0,-3685.37 -359.43,-3144.43 1434.05,-3144.43 85.75,113.33 116.07,323.55 319.86,392.52 113.87,38.56 3687.85,58.65 3846.91,-16.77 134.08,-63.56 254.47,-332.65 255.14,-336.81 3.36,-21.07 13.48,-27.01 22.53,-38.94 377.23,0 1152.78,-121.69 1361.58,128.94 163.24,210.91 100.08,7296.58 14.22,7529.39 -388.94,119.85 -6807.44,119.89 -7195.87,0zm3489.66 -9017.62l216.38 0c314.57,36.66 602.71,234.11 632.54,592.6 712.32,0 1374.42,-159.65 1422.23,414.81 373.9,0 889.39,-30.48 1245.57,-1.1 307.96,25.39 591.47,269.94 591.47,593.69l0 7288.92c0,319.54 -293.07,533.33 -592.59,533.33l-6814.82 0c-299.52,0 -592.59,-213.79 -592.59,-533.33l0 -7288.92c0,-789.6 1158.27,-592.59 1837.04,-592.59 46.98,-564.47 690.34,-414.81 1422.23,-414.81 29.83,-358.46 318,-555.96 632.54,-592.6zm-298.76 926.41c12.39,-621.98 240.07,-695.43 763.76,-474l50.02 487.54 1391.26 19.47 3.07 461.49 -3603.53 -2.26 6.94 -468.3 1388.48 -23.94z"/>
   <path class="fil2" d="M2696.27 4879.72l143.44 56.66c1224.69,0 2449.38,0 3674.07,0 467.71,0 521.41,-182.22 430.33,-573.02 -410.44,-210.11 -3245.45,-101.58 -3896.99,-101.58 -475.58,0 -523.8,246.85 -350.85,617.94z"/>
   <path class="fil2" d="M3076.75 6426.71l3437.03 0c471.54,0 527.21,-186.03 425.25,-574.77 -416.6,-202.58 -3210.27,-98.53 -3862.28,-98.53 -668.96,0 -639.04,673.3 0,673.3z"/>
   <path class="fil3" d="M2826.43 7265.55c-332.82,126.35 -315.09,601.24 141.71,652.07l3793.21 -25.71c349.42,-120.12 324.52,-601.64 -130.2,-647.84l-3804.72 21.48z"/>
   <path class="fil3" d="M2858.12 2957.41c-405.16,160.76 -312.42,607.04 102.29,649.76l3816.57 -25.57c315.18,-112.44 304.79,-604.89 -151.16,-651l-3767.7 26.81z"/>
   <path class="fil4" d="M3588.32 931.21l-1388.48 23.94 -6.94 468.3 3603.53 2.26 -3.07 -461.49 -1391.26 -19.47 -50.02 -487.54c-523.69,-221.43 -751.37,-147.98 -763.76,474z"/>
   <path class="fil5" d="M1588.19 3320.68c-186.63,-43.26 -543.44,-149.99 -456.06,218.8 37.33,157.45 349.62,354.56 470.64,422.6 137.61,-133.92 359.11,-428.61 504.67,-601.42 198.01,-235.14 423.03,-340.48 323.96,-695.36 -346.08,-89 -699.71,365.9 -843.21,655.38z"/>
   <path class="fil5" d="M1610.76 4649.98c-261.4,-63.8 -181.28,-99.72 -454.15,-43.78 -107.58,401.03 20.51,238.21 359.2,686.36 254.17,-122.99 908.26,-969.4 927.1,-1012.62 127.04,-291.6 -173.67,-464.75 -423.79,-179.4 -84.56,96.45 -95.02,130.31 -213.86,261.41 -109.2,120.43 -123.46,137.12 -194.5,288.03z"/>
   <path class="fil5" d="M1617.61 6138.9c-239.12,-54.13 -224.79,-88.64 -456.48,-45.24 -76.32,257.42 -84.33,304.77 322.48,602.27 102.9,75.25 -27.77,5.47 111.66,71.44 130.08,-146.3 804.08,-885.26 850.97,-1001.51 186.23,-461.61 -436.37,-460.22 -828.63,373.04z"/>
   <path class="fil5" d="M1131.93 7647.5c-25.31,401.64 258.23,427.31 446.97,624.73 169.61,-146.84 368.58,-424.39 520.79,-592.9 185.45,-205.34 413,-360.57 343.69,-703.05 -243.43,-67.81 -210.1,-79.11 -381.29,70.72 -85.21,74.6 -212.81,240 -274.84,321.7 -403.45,531.32 -227.77,-3.41 -655.32,278.8z"/>
  </g>
 </g>
</svg>
