<?xml version="1.0" encoding="UTF-8"?>
<!DOCTYPE svg PUBLIC "-//W3C//DTD SVG 1.1//EN" "http://www.w3.org/Graphics/SVG/1.1/DTD/svg11.dtd">
<!-- Creator: CorelDRAW 2021 (64-Bit) -->
<svg xmlns="http://www.w3.org/2000/svg" xml:space="preserve" width="80mm" height="98.812mm" version="1.1" style="shape-rendering:geometricPrecision; text-rendering:geometricPrecision; image-rendering:optimizeQuality; fill-rule:evenodd; clip-rule:evenodd"
viewBox="0 0 8000 9881.2"
 xmlns:xlink="http://www.w3.org/1999/xlink"
 xmlns:xodm="http://www.corel.com/coreldraw/odm/2003">
 <defs>
  <style type="text/css">
   <![CDATA[
    .fil3 {fill:#E6E7E8}
    .fil0 {fill:#212121}
    .fil5 {fill:#757575}
    .fil6 {fill:#757575}
    .fil2 {fill:#BDBDBD}
    .fil4 {fill:#FBC02D}
    .fil7 {fill:#FFEB3B}
    .fil1 {fill:#FFF9C4}
   ]]>
  </style>
 </defs>
 <g id="Capa_x0020_1">
  <metadata id="CorelCorpID_0Corel-Layer"/>
  <g id="_2329832051632">
   <path class="fil0" d="M543.04 2943.64c-67.29,25.06 -123.15,70.88 -162.04,141.82 -22.71,41.42 -29.47,61.46 -37.84,117.35 -9.72,64.83 -5.65,43.15 15.09,121.87 77.4,322.46 425.14,240.63 585.25,256.1 79.79,108.16 406.35,615.01 495.81,641.04 103.88,30.22 976.77,8.29 1157.07,8.29 0,221.84 12.79,481.87 1.38,698.66 -6.99,133 -156.79,210.89 -307.75,394.37 -284.74,346.08 -273.44,603.21 -273.44,1121.51 -100.29,-72.35 -239.79,-301.76 -373.28,-244.93 -80.81,34.41 -861.23,877.85 -984.41,958.91 -83.46,78.52 -424.43,402.61 -459.79,477.32 -59.86,126.5 226.92,350.11 377.73,500.93l1399.74 1399.73c239.07,239.07 363.31,445.56 522.06,300.15 250.64,-229.56 659.75,-666.24 930.96,-932.44 81.73,-93.03 427.66,-402.46 449.74,-470.58 51.97,-160.42 -223.77,-307.19 -391.54,-514.06 54.87,-69.86 110.27,-96.24 182.18,-174.23 238.86,-259.09 200.28,-176.63 516.52,-565 606.44,-744.79 1039.82,-1713.5 1269.14,-2667.63 20.01,-83.23 20.68,-238.09 87.86,-282.71 188.22,0 1057.2,23.77 1170.19,-7.49 125.28,-34.67 415.87,-600.67 528.8,-646.56 86.74,0 203.23,6.61 286.49,-5.02 113.95,-15.92 121.76,-58.84 196.18,-91.98 75.58,-112.61 128.07,-224.13 52.77,-380.87 -60.11,-125.09 -159.25,-181.09 -342.37,-178.15 -1151.97,0 -2303.94,0 -3455.9,0 -313.5,0 -3200.95,-30.5 -3436.6,23.6z"/>
   <path class="fil1" d="M3429.58 8904.32c919.93,173.59 1934.92,-114.97 2614.8,-522.35 264.65,-158.58 344.85,-237.85 561.01,-404.33 388.67,-299.36 770.85,-847.1 991.03,-1287.15 333.33,-666.18 447.87,-1381.62 380.25,-2169.34 -22.92,-266.96 -86.08,-555.34 -166.81,-798.53 -27.12,-81.7 -68.57,-174.1 -84.72,-243.56 -74.42,33.14 -82.23,76.06 -196.18,91.98 -83.26,11.63 -199.75,5.02 -286.49,5.02 -112.93,45.89 -403.52,611.89 -528.8,646.56 -112.99,31.26 -981.97,7.49 -1170.19,7.49 -67.18,44.62 -67.85,199.48 -87.86,282.71 -229.32,954.13 -662.7,1922.84 -1269.14,2667.63 -316.24,388.37 -277.66,305.91 -516.52,565 -71.91,77.99 -127.31,104.37 -182.18,174.23 167.77,206.87 443.51,353.64 391.54,514.06 -22.08,68.12 -368.01,377.55 -449.74,470.58z"/>
   <path class="fil1" d="M3013.58 1065.8c-44.47,111.43 -93.01,86.97 -192.35,58.16 -223.97,50.81 -775.46,303.71 -920.96,424.5 62.3,78.04 173.61,147.85 48.05,264.2 -168.05,29.73 -155.71,-77.48 -266.19,-130.58l-332.89 267.14c-214.89,189.52 -395.28,396.66 -569.03,628 -85.08,113.27 -177.87,236.78 -237.17,366.42 235.65,-54.1 3123.1,-23.6 3436.6,-23.6 1151.96,0 2303.93,0 3455.9,0 -23.47,-89.68 -153.3,-256.87 -209.59,-331.8 -105.92,-141 -318.61,-412.06 -449.43,-515.91 -32.72,-25.97 -49.1,-44.09 -79.39,-75.07 -56.1,-57.4 -87.17,-74.16 -144.72,-125.57 -48.17,-43.02 -106.35,-92.19 -159.43,-121.95 -51.88,44.41 -78.17,84.35 -187.18,61.72 -82.98,-82.36 -63.74,-112.35 -10.14,-205.08 -258.32,-201.77 -657.46,-334.18 -883.86,-444.27 -61.14,-3.03 -94.62,-15.41 -135.15,-35.67l-19.31 -22.04c-248.62,-5.53 -864.48,-331.44 -2143.76,-38.6z"/>
   <path class="fil1" d="M658.88 7158.63c123.18,-81.06 903.6,-924.5 984.41,-958.91 133.49,-56.83 272.99,172.58 373.28,244.93 0,-518.3 -11.3,-775.43 273.44,-1121.51 150.96,-183.48 300.76,-261.37 307.75,-394.37 11.41,-216.79 -1.38,-476.82 -1.38,-698.66 -180.3,0 -1053.19,21.93 -1157.07,-8.29 -89.46,-26.03 -416.02,-532.88 -495.81,-641.04 -160.11,-15.47 -507.85,66.36 -585.25,-256.1 -69.19,58.61 -154.48,347.4 -179.76,427.02 -322.16,1014.53 -209.92,2070.03 261.57,3016.01l218.82 390.92z"/>
   <path class="fil2" d="M3201.31 7634.36l336.05 -330.59c732.36,-771.29 1370.79,-2033.03 1559.41,-3073.21 -221.24,2.44 -149.16,-23.12 -325.65,406.96 -75.43,183.81 -277.24,720.05 -366.74,849.37 -70.87,102.41 -191.71,208.47 -360.81,258.17 -379.33,111.51 -682.75,-123.38 -797.27,-355.04 -113.8,-230.21 -69.57,-856.02 -69.57,-1158.25l-354.44 0.36c0,206.52 -0.49,412.19 0.04,617.8 0.8,314.71 -23.14,278.6 -181.64,437.25 -217.81,218.01 -389.1,374.32 -398.14,836.2 -14.12,721.29 -95.98,469.11 644.68,1209.01 77.25,77.16 236.36,254.01 314.08,301.97z"/>
   <path class="fil3" d="M1993.65 9207.63c72.23,-33.14 516.93,-503.09 610.98,-597.13 107.69,-107.69 201.22,-201.23 308.91,-308.91 98.11,-98.12 198.65,-211.11 299.86,-299.07 -41.37,-82.57 -631.64,-645.43 -751.9,-765.68 -258.44,-258.44 -497.01,-515.15 -760.06,-768.02l-1229.69 1219.01 1521.9 1519.8z"/>
   <path class="fil4" d="M5553.71 4004.96c33.29,-67.57 94.53,-142.1 137.2,-204.66 45.59,-66.83 120.09,-152.36 147.88,-224.53l-4615.63 0.92c28.52,60.29 100.47,152.48 146.53,214.78 54.27,73.39 94.58,168.92 177.3,212.78l4006.72 0.71z"/>
   <path class="fil0" d="M3583.33 2146.97c-25.71,187.59 -112.76,424.53 -26.24,554.98 180.27,41.43 411.14,-195.66 519.86,-197.1 100.27,-1.32 339.2,236 521.95,199.63 90.04,-144.31 -15.42,-394.78 -28.11,-586.22 78.49,-54.38 214.38,-192.53 290.59,-267.54 257.69,-253.65 -258.35,-243.35 -421.15,-279.99 -93.74,-21.11 -90.22,-70.17 -132.38,-157.57 -43.69,-90.57 -113.81,-318 -232,-320.1 -188.41,-3.34 -187.27,430.64 -347.3,474.96 -56.09,15.53 -187.51,26.66 -252.89,35.98 -506.18,72.19 -143.77,239.14 107.67,542.97z"/>
   <path class="fil4" d="M5765.94 3344.81l0 -196.91c-1203.51,-34.92 -2691.96,-1.39 -3948.66,-1.39l-984.74 -0.21c-112.84,-0.77 -254.88,-23.93 -256.16,101.38 -1.61,157.65 320.51,98.12 565.16,98.3l1988.6 0.08c870.57,0 1768.69,21.6 2635.8,-1.25z"/>
   <path class="fil5" d="M1993.65 9207.63l395.43 404.34c204.66,-203.93 402.53,-401.51 609.02,-608.01l612.33 -620.92c-58.24,-76.37 -317.57,-342.96 -397.03,-380.52 -101.21,87.96 -201.75,200.95 -299.86,299.07 -107.69,107.68 -201.22,201.22 -308.91,308.91 -94.05,94.04 -538.75,563.99 -610.98,597.13z"/>
   <path class="fil6" d="M3201.31 7634.36c32.64,51.98 66.61,88.36 121.9,114.76 143.19,-89.01 538.74,-522.1 668.01,-686.92 593.15,-756.22 1133.73,-1822.81 1292.1,-2830.24l-186.55 -1.4c-188.62,1040.18 -827.05,2301.92 -1559.41,3073.21l-336.05 330.59z"/>
   <path class="fil1" d="M3767.26 5531.14l436.51 -1299.8 -801.09 -0.87c0,276.62 -6.84,559.55 0.05,832.72 6.08,241.27 131.06,435.09 364.53,467.95z"/>
   <path class="fil7" d="M5553.71 4004.96l1051.64 -1.03c82.05,-37.94 115.82,-125.24 170.84,-199.42 54.31,-73.23 111.77,-149.79 155.16,-225.53l-1092.56 -3.21c-27.79,72.17 -102.29,157.7 -147.88,224.53 -42.67,62.56 -103.91,137.09 -137.2,204.66z"/>
   <path class="fil7" d="M3592.94 1815.86c52.84,84.65 148.23,128.32 198.75,211.08 53.16,87.08 -2.2,245.6 -15.9,359.78 109.13,-31.58 219.93,-134.15 318.2,-125.95 54.01,4.5 224.91,105 284.83,131.02 -9.82,-96.22 -63.69,-264.2 -24.96,-350.29 42.09,-93.56 155.82,-136.67 207.32,-226.73 -91.6,-11.55 -264.89,-18.48 -330.12,-73.64 -81.64,-69.04 -91.54,-195.56 -154.89,-264.82 -230.21,313.27 7.32,260.38 -483.23,339.55z"/>
   <path class="fil7" d="M5765.94 3344.81l1418.61 3.13c127.59,3.44 394.92,51.37 393.53,-100.3 -1.37,-148.1 -248.23,-100.93 -374.23,-100.91l-1437.91 1.17 0 196.91z"/>
   <path class="fil6" d="M4024.64 5501.73c202.26,-35.18 298.58,-366.36 382.92,-571.4 91.26,-221.87 201.77,-469.9 280.35,-692.32l-249.97 -7.18 -413.3 1270.9z"/>
   <path class="fil0" d="M6195.66 1606.38c-53.6,92.73 -72.84,122.72 10.14,205.08 109.01,22.63 135.3,-17.31 187.18,-61.72 113.63,-107.41 204.88,-203.63 313.73,-312.29 45.77,-45.69 119.25,-107.12 145.6,-164.71 34.81,-76.09 -7.69,-145.69 -92.51,-168.34 -102.32,-9.12 -492.21,413.43 -564.14,501.98z"/>
   <path class="fil0" d="M5157.34 1104.4l19.31 22.04c40.53,20.26 74.01,32.64 135.15,35.67 92.73,-79.86 280.95,-556.69 330.43,-694.83 56.04,-156.45 -139.55,-301.95 -256.29,-3.08 -26.24,67.16 -54.11,130.28 -85.17,204.43 -55.74,133.07 -143.43,291.3 -143.43,435.77z"/>
   <path class="fil0" d="M1682.13 1682.08c110.48,53.1 98.14,160.31 266.19,130.58 125.56,-116.35 14.25,-186.16 -48.05,-264.2l-409.91 -407.38c-104.59,-74.26 -113.27,-33.05 -194.36,21.25 0,178.09 62.01,187.57 159.28,284.77 74.18,74.12 170.43,155.04 226.85,234.98z"/>
   <path class="fil0" d="M3960.33 100.46l0 695.04c0,181.27 231.68,181.27 231.68,0l0 -695.04c0,-61.96 -53.51,-94.13 -109.09,-96.54l-13.5 0c-55.59,2.41 -109.09,34.58 -109.09,96.54z"/>
   <path class="fil0" d="M2821.23 1123.96c99.34,28.81 147.88,53.27 192.35,-58.16 29.03,-66.42 -262.84,-721.34 -262.85,-721.36 -85.78,-128.57 -248.77,-43.68 -209.26,110.13 11.31,44.02 22.9,57.67 39.68,98.32 30.3,73.42 47.55,121.04 79.04,191.27 59.2,132.05 97.96,259.68 161.04,379.8z"/>
   <path class="fil0" d="M1647.97 7046.88c-292.71,134.65 -82.06,518.7 174.57,396.12 243.76,-116.44 76.62,-511.69 -174.57,-396.12z"/>
  </g>
 </g>
</svg>
