<?xml version="1.0" encoding="UTF-8"?>
<!DOCTYPE svg PUBLIC "-//W3C//DTD SVG 1.1//EN" "http://www.w3.org/Graphics/SVG/1.1/DTD/svg11.dtd">
<!-- Creator: CorelDRAW 2021 (64-Bit) -->
<svg xmlns="http://www.w3.org/2000/svg" xml:space="preserve" width="80mm" height="53.7212mm" version="1.1" style="shape-rendering:geometricPrecision; text-rendering:geometricPrecision; image-rendering:optimizeQuality; fill-rule:evenodd; clip-rule:evenodd"
viewBox="0 0 8000 5372.12"
 xmlns:xlink="http://www.w3.org/1999/xlink"
 xmlns:xodm="http://www.corel.com/coreldraw/odm/2003">
 <defs>
  <style type="text/css">
   <![CDATA[
    .fil0 {fill:#212121}
    .fil1 {fill:#FBC02D}
    .fil3 {fill:#FFEB3B}
    .fil2 {fill:#FFF9C4}
    .fil4 {fill:#373435;fill-rule:nonzero}
   ]]>
  </style>
 </defs>
 <g id="Capa_x0020_1">
  <metadata id="CorelCorpID_0Corel-Layer"/>
  <g id="_2328381616656">
   <path class="fil0" d="M-4.73 176.8l0 5037.04c0,106.91 105.7,164.62 213.99,164.62l641.98 0c119.04,0 213.99,-65.84 213.99,-181.07l0 -5004.13c0,-115.23 -94.95,-181.07 -213.99,-181.07l-641.98 0c-108.29,0 -213.99,57.71 -213.99,164.61z"/>
   <path class="fil1" d="M6925.31 193.26l0 5004.13c0,115.23 94.96,181.07 213.99,181.07l641.98 0c108.29,0 213.99,-57.71 213.99,-164.62l0 -5037.04c0,-106.9 -105.7,-164.61 -213.99,-164.61l-641.98 0c-119.03,0 -213.99,65.84 -213.99,181.07z"/>
   <path class="fil0" d="M3583.75 259.11l0 3423.87c0,319.95 188.55,246.91 658.43,246.91 122.36,0 164.62,-121.89 164.62,-246.91l0 -3423.87c0,-311.23 -229.76,-246.92 -609.06,-246.92 -152.88,0 -213.99,93 -213.99,246.92z"/>
   <path class="fil0" d="M2530.25 176.8l0 3621.41c0,48.24 83.44,131.68 131.68,131.68 480.14,0 674.9,72.5 674.9,-230.45l0 -3473.26c0,-272.8 -284.2,-213.99 -576.13,-213.99 -124.81,0 -230.45,42.7 -230.45,164.61z"/>
   <path class="fil2" d="M4653.71 226.18l0 3473.26c0,302.95 194.76,230.45 674.9,230.45 48.24,0 131.68,-83.44 131.68,-131.68l0 -3621.41c0,-217.8 -347.06,-164.61 -592.59,-164.61 -133.46,0 -213.99,80.54 -213.99,213.99z"/>
   <path class="fil3" d="M5723.67 193.26l0 3539.1c0,102.96 65.59,197.53 131.69,197.53l543.2 0c50.21,0 131.69,-75.7 131.69,-164.61l0 -3588.48c0,-218.1 -370.9,-164.61 -592.59,-164.61 -119.04,0 -213.99,65.84 -213.99,181.07z"/>
   <path class="fil0" d="M1460.29 176.8l0 3588.48c0,39.35 19.35,83.97 39.46,108.7 15.8,19.43 64.79,55.91 92.23,55.91l543.21 0c66.09,0 131.68,-94.57 131.68,-197.53l0 -3539.1c0,-237.46 -341.1,-181.07 -592.59,-181.07 -108.29,0 -213.99,57.71 -213.99,164.61z"/>
   <path class="fil4" d="M1497.31 4993.06c67.09,39.5 124.16,66.91 171.2,82.96 46.78,15.8 92.53,23.7 137.26,23.7 44.98,0 81.22,-9.63 108.73,-28.64 27.24,-19.01 40.87,-43.45 40.87,-73.33 0,-42.71 -48.59,-91.1 -146,-144.43 -15.69,-8.64 -27.76,-15.55 -36.25,-20.24l-73.77 -40c-71.71,-39.01 -124.92,-83.2 -159.37,-132.34 -34.7,-49.12 -51.92,-104.92 -51.92,-167.14 0,-84.43 33.16,-153.57 99.48,-207.64 66.06,-54.07 151.65,-80.98 256.53,-80.98 38.81,0 80.71,4.45 125.69,13.09 45.24,8.64 95.36,22.22 150.63,40.49l0 245.66c-52.69,-31.61 -102.56,-56.05 -149.86,-73.33 -47.3,-17.28 -87.4,-25.92 -120.55,-25.92 -36.76,0 -65.55,7.65 -86.63,22.71 -21.07,15.06 -31.61,35.8 -31.61,61.72 0,18.28 6.17,35.31 18.76,51.11 12.6,16.05 31.36,30.37 56.55,43.46l128.01 67.89c107.19,57.03 179.16,109.62 216.17,157.76 37.02,48.4 55.52,105.43 55.52,171.59 0,102.22 -36.24,184.93 -108.72,247.89 -72.75,62.95 -168.88,94.31 -288.92,94.31 -40.61,0 -84.83,-4.2 -132.64,-12.35 -47.55,-8.15 -100.25,-20.98 -157.31,-38.26l-21.85 -279.74zm1120.97 296.28l0 -829.56 -347.01 0 0 -219.24 953.12 0 0 219.24 -345.47 0 0 829.56 -260.64 0zm931.78 -524.4c0,91.1 27.76,167.63 83.29,229.11 55.52,61.48 123.89,92.34 205.12,92.34 81.74,0 150.37,-30.61 205.63,-91.84 55.26,-61.48 82.77,-138.02 82.77,-229.61 0,-92.09 -27.51,-169.12 -82.77,-230.6 -55.26,-61.48 -123.89,-92.34 -205.63,-92.34 -81.23,0 -149.6,30.86 -205.12,92.34 -55.53,61.48 -83.29,138.51 -83.29,230.6zm-268.35 0c0,-77.78 13.88,-150.36 41.9,-218.01 27.76,-67.9 68.89,-128.39 123.12,-181.96 51.15,-51.11 110.79,-90.36 178.65,-117.52 67.6,-27.41 138.8,-40.99 213.09,-40.99 74.28,0 145.48,13.83 213.6,41.24 68.11,27.4 128.52,67.15 181.21,118.75 53.21,51.6 93.57,111.1 120.82,179 27.5,67.65 41.12,140.97 41.12,219.49 0,65.67 -9.51,127.39 -28.53,185.16 -19.28,57.78 -47.55,110.61 -85.34,158.51 -53.21,67.9 -118.49,120.73 -196.12,158.26 -77.63,37.77 -159.88,56.54 -246.76,56.54 -73.78,0 -144.46,-13.83 -212.06,-41.24 -67.61,-27.4 -127.5,-67.15 -179.68,-118.75 -54.23,-53.33 -95.36,-113.82 -123.12,-181.22 -28.02,-67.15 -41.9,-139.74 -41.9,-217.26zm2101.85 -192.58c-47.3,-46.66 -95.11,-81.23 -143.43,-103.94 -48.59,-22.47 -99.48,-33.83 -152.69,-33.83 -92.28,0 -167.85,30.62 -226.46,91.85 -58.86,61.23 -88.16,139.99 -88.16,235.78 0,96.04 29.05,173.81 87.39,233.31 58.1,59.51 133.93,89.38 227.49,89.38 55.26,0 110.27,-11.11 165.28,-33.33 55.01,-22.22 109.76,-55.55 164.51,-99.99l-16.71 278.49c-46.78,30.37 -97.68,53.57 -153.2,69.38 -55.52,16.04 -113.1,23.95 -172.99,23.95 -64.26,0 -125.7,-9.63 -184.81,-28.89 -58.87,-19.26 -113.36,-47.9 -162.97,-85.42 -70.43,-53.09 -124.15,-117.77 -161.68,-194.31 -37.27,-76.29 -56.04,-159.74 -56.04,-249.85 0,-77.78 13.88,-150.61 41.39,-218.5 27.76,-67.9 67.86,-128.14 120.55,-180.23 53.21,-52.1 114.64,-91.85 184.56,-119.75 69.66,-27.65 143.17,-41.48 220.54,-41.48 61.44,0 119.79,8.15 175.56,24.69 55.78,16.3 108.99,41.23 159.63,74.56l-27.76 268.13zm203.32 716.98l0 -1048.8 257.56 0 0 456.5 360.63 -456.5 310.25 0 -411.78 498.97 444.17 549.83 -314.62 0 -388.65 -483.17 0 483.17 -257.56 0z"/>
  </g>
 </g>
</svg>
