<?xml version="1.0" encoding="UTF-8"?>
<!DOCTYPE svg PUBLIC "-//W3C//DTD SVG 1.1//EN" "http://www.w3.org/Graphics/SVG/1.1/DTD/svg11.dtd">
<!-- Creator: CorelDRAW 2021 (64-Bit) -->
<svg xmlns="http://www.w3.org/2000/svg" xml:space="preserve" width="80mm" height="76.127mm" version="1.1" style="shape-rendering:geometricPrecision; text-rendering:geometricPrecision; image-rendering:optimizeQuality; fill-rule:evenodd; clip-rule:evenodd"
viewBox="0 0 8000 7612.7"
 xmlns:xlink="http://www.w3.org/1999/xlink"
 xmlns:xodm="http://www.corel.com/coreldraw/odm/2003">
 <defs>
  <style type="text/css">
   <![CDATA[
    .fil2 {fill:#282829}
    .fil3 {fill:#757576}
    .fil0 {fill:#FCEB37}
    .fil1 {fill:#FEFEFE}
   ]]>
  </style>
 </defs>
 <g id="Capa_x0020_1">
  <metadata id="CorelCorpID_0Corel-Layer"/>
  <g id="_2328084029456">
   <path class="fil0" d="M3204.68 2725.39c49.05,-7.81 1380.7,-1.87 1498.61,-1.92 92.01,-0.05 148.43,2 176.14,75.19 28.72,75.87 -26.26,141.76 -85.74,152.2 -51.17,8.98 -1386.67,2.4 -1506.44,2.48 -92.63,0.06 -153.29,-2.99 -177.55,-79.07 -25.49,-79.92 30.34,-138.58 94.98,-148.88zm-18.21 -1161.29c55.31,-17.16 511.86,-6.16 609.1,-6.16 84.57,0 227.24,-17.28 279.58,30.03 52.72,47.68 49.08,163.19 -44.88,193.49 -50.17,16.17 -517,5.94 -609.89,5.94 -81.32,0 -226.85,16.1 -279.25,-28.05 -67.52,-56.87 -41.9,-168.19 45.34,-195.25zm-1019.2 3286.75c0,128.69 62.8,201.46 137.93,249.79l711.27 462.62c158.2,102.77 316.79,200.8 473.19,307.48 75.64,51.59 157.6,98.58 234.97,152.4 239.47,166.57 301.06,166.04 537.76,2.48 78.15,-54 161.67,-102.49 238.49,-154.88 156.4,-106.68 314.99,-204.71 473.19,-307.48l707.57 -460.27c76.4,-48.76 141.63,-120.71 141.63,-252.14l0 -4617.9 -3655.53 0 -0.47 4617.9z"/>
   <path class="fil1" d="M227.31 4024.51c-9.72,50.42 -2.7,2537.37 -2.7,2678.08 0,242.81 -64.64,606.03 213.92,676.76 75.5,19.17 343.85,7.66 440.25,7.66 1932.43,0 3864.85,0 5797.28,0 127.8,0 811.44,9.87 880.88,-8.95 274.92,-74.52 208.99,-441.84 208.99,-687.58 0,-142.83 7.05,-2615.37 -2.7,-2665.97l-1875.26 1218.27c-314.55,201.78 -621.31,409.45 -938.45,610.85 -225.95,143.47 -482.44,321.93 -704.51,457.44 -309.91,189.11 -189.53,189.13 -499.48,0 -81.43,-49.69 -153.86,-100.16 -235.25,-152.19 -158.5,-101.32 -310.37,-204.36 -469.26,-305.25 -317.15,-201.41 -623.9,-409.07 -938.45,-610.85 -625.82,-401.46 -1249.54,-820.24 -1875.26,-1218.27z"/>
   <path class="fil2" d="M227.31 4024.51c625.72,398.03 1249.44,816.81 1875.26,1218.27 314.55,201.78 621.3,409.44 938.45,610.85 158.89,100.89 310.76,203.93 469.26,305.25 81.39,52.03 153.82,102.5 235.25,152.19 309.95,189.13 189.57,189.11 499.48,0 222.07,-135.51 478.56,-313.97 704.51,-457.44 317.14,-201.4 623.9,-409.07 938.45,-610.85l1875.26 -1218.27c9.75,50.6 2.7,2523.14 2.7,2665.97 0,245.74 65.93,613.06 -208.99,687.58 -69.44,18.82 -753.08,8.95 -880.88,8.95 -1932.43,0 -3864.85,0 -5797.28,0 -96.4,0 -364.75,11.51 -440.25,-7.66 -278.56,-70.73 -213.92,-433.95 -213.92,-676.76 0,-140.71 -7.02,-2627.66 2.7,-2678.08zm1940.43 -3791.56l3655.53 0 0 4617.9c0,131.43 -65.23,203.38 -141.63,252.14l-707.57 460.27c-158.2,102.77 -316.79,200.8 -473.19,307.48 -76.82,52.39 -160.34,100.88 -238.49,154.88 -236.7,163.56 -298.29,164.09 -537.76,-2.48 -77.37,-53.82 -159.33,-100.81 -234.97,-152.4 -156.4,-106.68 -314.99,-204.71 -473.19,-307.48l-711.27 -462.62c-75.13,-48.33 -137.93,-121.1 -137.93,-249.79l0.47 -4617.9zm3885.02 4623.95l0 -2208.78c251.57,168.46 515.2,362.7 766.09,528.92 20.19,13.37 34.88,22.25 54.35,36.42l561.67 388.41c31.71,21.05 241.31,171.84 263.88,177.87 -7.44,27.87 -74.2,57.49 -96.89,72.56l-1440.46 937.75c-24.56,14.66 -87.23,61.13 -108.64,66.85zm-5760.97 -1077.16c16.28,-4.34 35.62,-21.8 52.03,-32.69 234.73,-155.89 482.77,-339.12 716.48,-493.8l670.03 -461.59c35.08,-26.35 68.77,-45.93 103.65,-71.84 17.35,-12.88 32.24,-22.01 50.55,-34.18 19.69,-13.09 35.57,-25.68 53.25,-37.52l0 2208.78 -515.58 -331.62c-35.27,-23.53 -67.69,-42.93 -102.89,-66.55 -201.08,-134.94 -419.72,-269.18 -619.69,-403.01l-385.18 -250.22c-25.21,-16.62 -18.18,-17.25 -22.65,-25.76zm1645.99 -1409.98l-829.02 568.85c-40.51,26.82 -76.24,52.86 -118.67,81.04l-766.07 528.94c-22.12,14.68 -39.7,25.85 -61.01,41.86l-119.33 80.37c7.61,14.38 13.97,20.63 18.16,36.31 -35.86,9.57 -66.57,51.51 -66.57,96.82l0 3304.08c0,141.8 61.76,249.21 143.37,346.8 16.6,19.86 7.13,13.55 29.44,31.07 84.51,66.36 165.65,130.45 305.25,130.45l7043.88 0c153.73,0 307.04,-103.77 386.2,-224.99 50.59,-77.47 91.86,-181.75 91.86,-283.33l0 -3304.08c0,-45.31 -30.71,-87.25 -66.57,-96.82 4.19,-15.68 10.55,-21.93 18.16,-36.31l-473.71 -325.08c-20.14,-15.12 -36.79,-25.39 -57.62,-39.21 -173.56,-115.18 -359.96,-252.9 -533.75,-367.92l-709.2 -488.98c-40.75,-27.08 -77.22,-57.33 -119.82,-79.87l0 -2160.37c0,-61.81 17.44,-205.74 -108.93,-205.74l-3897.12 0c-124.77,0 -108.93,140.69 -108.93,199.69l0 2166.42z"/>
   <path class="fil3" d="M3204.68 2725.39c-64.64,10.3 -120.47,68.96 -94.98,148.88 24.26,76.08 84.92,79.13 177.55,79.07 119.77,-0.08 1455.27,6.5 1506.44,-2.48 59.48,-10.44 114.46,-76.33 85.74,-152.2 -27.71,-73.19 -84.13,-75.24 -176.14,-75.19 -117.91,0.05 -1449.56,-5.89 -1498.61,1.92z"/>
   <path class="fil3" d="M3186.47 1564.1c-87.24,27.06 -112.86,138.38 -45.34,195.25 52.4,44.15 197.93,28.05 279.25,28.05 92.89,0 559.72,10.23 609.89,-5.94 93.96,-30.3 97.6,-145.81 44.88,-193.49 -52.34,-47.31 -195.01,-30.03 -279.58,-30.03 -97.24,0 -553.79,-11 -609.1,6.16z"/>
  </g>
 </g>
</svg>
