<?xml version="1.0" encoding="UTF-8"?>
<!DOCTYPE svg PUBLIC "-//W3C//DTD SVG 1.1//EN" "http://www.w3.org/Graphics/SVG/1.1/DTD/svg11.dtd">
<!-- Creator: CorelDRAW 2021 (64-Bit) -->
<svg xmlns="http://www.w3.org/2000/svg" xml:space="preserve" width="80mm" height="61.2398mm" version="1.1" style="shape-rendering:geometricPrecision; text-rendering:geometricPrecision; image-rendering:optimizeQuality; fill-rule:evenodd; clip-rule:evenodd"
viewBox="0 0 8000 6123.98"
 xmlns:xlink="http://www.w3.org/1999/xlink"
 xmlns:xodm="http://www.corel.com/coreldraw/odm/2003">
 <defs>
  <style type="text/css">
   <![CDATA[
    .fil3 {fill:#212121;fill-rule:nonzero}
    .fil1 {fill:#FBC02D;fill-rule:nonzero}
    .fil0 {fill:#FFEB3B;fill-rule:nonzero}
    .fil2 {fill:#FFF9C4;fill-rule:nonzero}
   ]]>
  </style>
 </defs>
 <g id="Capa_x0020_1">
  <metadata id="CorelCorpID_0Corel-Layer"/>
  <g id="_2328183972944">
   <path class="fil0" d="M4013.21 2873.75c712.45,0 1292.24,-579.76 1292.24,-1292.41 0,-712.36 -579.69,-1291.88 -1292.24,-1291.88 -712.36,0 -1291.88,579.49 -1291.88,1291.88 0,712.65 579.52,1292.41 1291.88,1292.41z"/>
   <path class="fil0" d="M4955.42 2661.68c-254.13,224.29 -587.35,361.64 -952.2,361.64 -361.44,0 -701.39,-134.82 -954.8,-355.47 -2.16,1.42 -23.76,3.48 -26.16,4.56 -417.53,197.52 -687.55,538.68 -687.55,960.87l0 2323.72 3290.47 0 0 -2323.99c-0.07,-420.57 -244.74,-773.91 -669.76,-971.33z"/>
   <path class="fil1" d="M1586.79 3480.23l0 1130.7 -1346.07 0 0 -1328.59c0,-244.85 146.87,-425.67 382.43,-537.37 153.93,127.7 364.85,204.58 579.96,204.58 202.79,0 396,-68.85 545.74,-183.66l107.96 76c-231.07,240.08 -270.02,620.39 -270.02,638.34zm-370.01 -680.22c-407.54,0 -739.08,-331.71 -739.08,-739.42 0,-407.71 331.54,-739.42 739.08,-739.42 407.88,0 739.79,331.71 739.79,739.42 0,407.71 -331.81,739.42 -739.79,739.42z"/>
   <path class="fil2" d="M6112.64 2862.78l118.22 -75.9c149.9,114.58 340.01,183.49 542.7,183.49 215.11,0 420.46,-76.88 574.49,-204.58 235.63,111.81 370.76,292.53 370.76,537.37l0 1307.77 -1345.88 0 0 -1109.81c0,-17.95 -29.02,-398.32 -260.29,-638.34zm-86.6 -781.5c0,-407.71 331.91,-739.42 739.79,-739.42 407.54,0 739.08,331.71 739.08,739.42 0,407.71 -331.54,739.52 -739.08,739.52 -407.91,0 -739.79,-331.81 -739.79,-739.52z"/>
   <path class="fil3" d="M3984.39 3185.38c-877.22,0 -1590.99,-713.87 -1590.99,-1591.46 0,-877.28 713.81,-1590.98 1590.99,-1590.98 877.38,0 1591.35,713.7 1591.35,1590.98 0,877.59 -713.97,1591.46 -1591.35,1591.46zm0 -2733.76c-629.95,0 -1142.31,512.43 -1142.31,1142.3 0,630.21 512.36,1142.74 1142.31,1142.74 630.04,0 1142.67,-512.53 1142.67,-1142.74 -0.1,-629.84 -512.73,-1142.3 -1142.67,-1142.3z"/>
   <path class="fil3" d="M5679.65 6126.72c-123.92,0 -224.39,-100.47 -224.39,-224.39l0 -2256.73c0,-367.52 -209.21,-665.68 -589.07,-839.25 -112.69,-51.53 -162.16,-184.56 -110.73,-297.35 51.6,-112.79 184.47,-162.33 297.35,-110.73 541.02,247.44 851.13,702.03 851.13,1247.4l0 2256.66c0.1,123.95 -100.33,224.39 -224.29,224.39z"/>
   <path class="fil3" d="M2311.33 6126.92c-123.93,0 -224.39,-100.47 -224.39,-224.39l0 -2256.86c0,-536.39 298.33,-985.14 818.52,-1231.23 112.15,-53.12 245.72,-5.17 298.77,106.78 53.05,111.94 5.17,245.72 -106.78,298.77 -367.51,173.83 -561.73,459.41 -561.73,825.68l0 2256.76c0,124.02 -100.47,224.49 -224.39,224.49z"/>
   <path class="fil3" d="M1215.97 3105.36c-572.37,0 -1038.19,-465.92 -1038.19,-1038.56 0,-572.7 465.82,-1038.56 1038.19,-1038.56 572.9,0 1039,465.82 1039,1038.56 -0.1,572.64 -466.1,1038.56 -1039,1038.56zm0 -1628.41c-325.03,0 -589.51,264.59 -589.51,589.78 0,325.2 264.48,589.78 589.51,589.78 325.57,0 590.22,-264.58 590.22,-589.78 0,-325.19 -264.76,-589.78 -590.22,-589.78z"/>
   <path class="fil3" d="M219.66 4823c-123.92,0 -224.39,-100.47 -224.39,-224.39l0 -1310c0,-360.02 186.96,-646.91 526.47,-807.82 111.87,-52.85 245.72,-5.37 298.77,106.71 53.12,111.97 5.43,245.72 -106.61,298.77 -181.63,86.09 -269.85,217.71 -269.85,402.34l0 1310c0,123.92 -100.47,224.39 -224.39,224.39z"/>
   <path class="fil3" d="M6761.34 3105.36c-572.64,0 -1038.56,-465.92 -1038.56,-1038.56 0,-572.7 465.92,-1038.56 1038.56,-1038.56 572.64,0 1038.46,465.82 1038.46,1038.56 0,572.64 -465.82,1038.56 -1038.46,1038.56zm0 -1628.41c-325.3,0 -589.78,264.59 -589.78,589.78 0,325.2 264.58,589.78 589.78,589.78 325.2,0 589.68,-264.58 589.68,-589.78 0,-325.19 -264.48,-589.78 -589.68,-589.78z"/>
   <path class="fil3" d="M7770.88 4823c-123.86,0 -224.29,-100.47 -224.29,-224.39l0 -1310c0,-188.31 -91.69,-321.89 -280.65,-408.31 -112.68,-51.54 -162.16,-184.74 -110.56,-297.36 51.6,-112.78 184.84,-162.06 297.36,-110.56 349.83,160.21 542.53,450.03 542.53,816.3l0 1310c0,123.85 -100.47,224.32 -224.39,224.32z"/>
  </g>
 </g>
</svg>
