<?xml version="1.0" encoding="UTF-8"?>
<!DOCTYPE svg PUBLIC "-//W3C//DTD SVG 1.1//EN" "http://www.w3.org/Graphics/SVG/1.1/DTD/svg11.dtd">
<!-- Creator: CorelDRAW 2021 (64-Bit) -->
<svg xmlns="http://www.w3.org/2000/svg" xml:space="preserve" width="80mm" height="76.127mm" version="1.1" style="shape-rendering:geometricPrecision; text-rendering:geometricPrecision; image-rendering:optimizeQuality; fill-rule:evenodd; clip-rule:evenodd"
viewBox="0 0 8000 7612.7"
 xmlns:xlink="http://www.w3.org/1999/xlink"
 xmlns:xodm="http://www.corel.com/coreldraw/odm/2003">
 <defs>
  <style type="text/css">
   <![CDATA[
    .fil1 {fill:#212121;fill-rule:nonzero}
    .fil0 {fill:#FFEB3B;fill-rule:nonzero}
   ]]>
  </style>
 </defs>
 <g id="Capa_x0020_1">
  <metadata id="CorelCorpID_0Corel-Layer"/>
  <g id="_2328086142144">
   <polygon class="fil0" points="3995.27,1238.53 4541.57,2296.57 5709.54,2466.22 4852.46,3238.53 5138.08,4381.45 3995.27,3738.5 2852.46,4381.45 3138.08,3238.53 2281,2466.22 3480.94,2296.57 "/>
   <path class="fil1" d="M4491.25 7524.26l-495.98 -285.73 1142.81 -2000 1714.27 0c0.32,-0.11 0.65,-0.11 0.97,-0.11 315,0 570.49,-255.49 570.49,-570.48 0,-0.33 0,-0.65 0,-0.98l0 -3428.43c0,-0.32 0,-0.65 0,-0.97 0,-314.99 -255.49,-570.49 -570.49,-570.49 -0.32,0 -0.65,0 -0.97,0l-5714.16 0.11c-0.22,-0.11 -0.54,-0.11 -0.86,-0.11 -315,0 -570.49,255.5 -570.49,570.49 0,0.32 0,0.65 0,0.97l-0.11 3428.54c0.11,0.22 0.11,0.54 0.11,0.87 0,314.99 255.49,570.48 570.49,570.48 0.32,0 0.64,0 0.97,0l2571.24 0.11 0 571.46 -2571.35 0c0,-0.22 -0.11,-0.22 -0.11,-0.22 -630.96,0 -1142.59,-511.63 -1142.59,-1142.59 0,0 0,-0.11 0,-0.11l-0.22 -3428.54c0.11,0 0.11,-0.32 0.11,-0.32 0,-630.85 511.63,-1142.49 1142.49,-1142.49 0,0 0.32,0 0.32,0l5714.16 0c0.11,0 0.43,0 0.43,0 630.85,0 1142.49,511.64 1142.49,1142.49 0,0 0,0.32 0,0.32l0 3428.54c-0.11,0 -0.11,0.11 -0.11,0.11 0,630.96 -511.63,1142.59 -1142.59,1142.59 0,0 -0.11,0 -0.11,0l-1381.57 0.22 -979.64 1714.27z"/>
  </g>
 </g>
</svg>
